<svg width="470" height="478" viewBox="0 0 470 478" fill="none" xmlns="http://www.w3.org/2000/svg">
<path d="M63.8543 341.81V341.912C63.8543 342.079 63.8914 342.255 63.9657 342.441C64.3807 344.474 64.6904 346.528 64.8937 348.594C65.07 350.366 65.2093 352.389 65.2464 354.645C65.3345 359.856 64.9774 365.066 64.1791 370.217C63.9749 371.572 63.7336 373.002 63.4459 374.431C62.9912 376.788 62.4344 379.257 61.7476 381.809C61.4414 382.997 61.0887 384.213 60.7175 385.438L60.2813 386.932C60.1142 387.535 59.9472 388.138 59.7894 388.788C58.7226 392.911 57.8707 397.087 57.2372 401.298C56.4484 406.542 55.9565 411.748 55.6874 416.676C55.3255 423.247 55.344 429.316 55.5018 434.309C55.4972 434.392 55.4972 434.476 55.5018 434.56C55.6688 439.636 55.9844 443.617 56.1978 445.882C56.3185 447.209 56.402 447.961 56.4113 448.007" stroke="#272727" stroke-linecap="round" stroke-linejoin="round"/>
<path d="M63.8821 341.939C62.4927 340.704 60.8185 339.834 59.0098 339.405Z" fill="white"/>
<path d="M63.8821 341.939C62.4927 340.704 60.8185 339.834 59.0098 339.405" stroke="#272727" stroke-linecap="round" stroke-linejoin="round"/>
<path d="M64.9238 348.62L67.3925 346.384" stroke="#272727" stroke-linecap="round" stroke-linejoin="round"/>
<path d="M61.7766 381.818C61.6472 381.167 61.4545 380.529 61.2013 379.915C60.8354 379.015 60.3381 378.174 59.7256 377.419C59.2683 376.852 58.7484 376.338 58.1758 375.888" stroke="#272727" stroke-linecap="round" stroke-linejoin="round"/>
<path d="M59.8008 388.778C60.1506 387.911 60.6745 387.126 61.3402 386.47C62.0058 385.814 62.7991 385.301 63.6708 384.964" stroke="#272727" stroke-linecap="round" stroke-linejoin="round"/>
<path d="M55.5117 423.304C56.3377 422.301 56.9595 418.506 57.2936 416.464C57.3771 415.981 57.4421 415.536 57.507 415.267" fill="white"/>
<path d="M55.5117 423.304C56.3377 422.301 56.9595 418.506 57.2936 416.464C57.3771 415.981 57.4421 415.536 57.507 415.267" stroke="#272727" stroke-linecap="round" stroke-linejoin="round"/>
<path d="M49.1562 430.189C49.4309 430.161 49.7076 430.161 49.9822 430.189C51.1978 430.307 52.3583 430.754 53.3392 431.481C54.3202 432.209 55.0846 433.19 55.5506 434.319" fill="white"/>
<path d="M49.1562 430.189C49.4309 430.161 49.7076 430.161 49.9822 430.189C51.1978 430.307 52.3583 430.754 53.3392 431.481C54.3202 432.209 55.0846 433.19 55.5506 434.319" stroke="#272727" stroke-linecap="round" stroke-linejoin="round"/>
<path d="M63.4754 374.505C63.4754 374.505 63.9116 359.443 55.6426 353.977" stroke="#272727" stroke-linecap="round" stroke-linejoin="round"/>
<path d="M64.1794 406.792C65.2653 410.31 57.683 417.001 57.683 417.001C57.683 417.001 47.6693 415.748 46.5464 412.24C45.4234 408.732 47.9941 402.959 52.8571 401.474C57.7202 399.99 63.1307 403.275 64.1794 406.792Z" fill="#00C2CB"/>
<path d="M72.6158 364.166C71.6877 367.878 64.486 370.542 64.486 370.542C64.486 370.542 59.5395 364.76 60.4675 361.029C61.3956 357.299 65.3955 353.197 68.7551 354.06C72.1146 354.923 73.581 360.435 72.6158 364.166Z" fill="#00C2CB"/>
<path d="M43.8566 419.914C48.3577 421.659 51.114 429.622 51.114 429.622C51.114 429.622 43.6895 433.622 39.1977 431.868C34.7059 430.114 29.9172 425.176 31.2165 421.882C32.5157 418.587 39.3555 418.123 43.8566 419.914Z" fill="#00C2CB"/>
<path d="M53.7206 376.11C54.6316 376.876 55.6761 377.467 56.8017 377.854C57.3668 378.037 57.9712 378.061 58.549 377.924C59.1268 377.786 59.6556 377.492 60.0777 377.075C61.0058 375.97 60.7831 374.291 60.1798 372.908C58.9734 370.263 54.5373 365.762 51.1313 367.052C46.2126 368.936 51.5304 374.504 53.7206 376.11Z" fill="#00C2CB"/>
<path d="M63.7895 382.857C63.1398 383.656 62.4531 384.667 62.815 385.642C63.0169 386.051 63.3484 386.382 63.7579 386.584C64.1674 386.785 64.6321 386.845 65.0795 386.755C65.9697 386.544 66.8007 386.135 67.511 385.558C69.2465 384.352 72.8102 381.846 70.5365 379.461C68.2627 377.076 65.1073 381.178 63.7895 382.857Z" fill="#00C2CB"/>
<path d="M49.2669 349.197C48.8923 349.219 48.5339 349.358 48.2425 349.594C47.9511 349.831 47.7413 350.153 47.6428 350.515C47.4943 351.378 48.2089 352.129 48.8957 352.658C50.6219 353.995 55.8097 357.577 56.9605 354.116C58.0556 350.849 51.5499 348.946 49.2669 349.197Z" fill="#00C2CB"/>
<path d="M58.8185 337.818C57.7512 337.92 56.6839 337.53 55.6074 337.595C54.5308 337.66 53.3522 338.523 53.5842 339.581C53.8162 340.639 55.0134 340.871 55.9972 340.927C57.6909 341.036 59.3916 340.92 61.0551 340.584C61.449 340.546 61.8139 340.36 62.076 340.064C62.5121 339.424 61.8254 338.57 61.0829 338.347C60.3207 338.246 59.5712 338.065 58.8463 337.809L58.8185 337.818Z" fill="#00C2CB"/>
<path d="M69.2672 345.178C70.3345 345.178 71.3739 344.752 72.4504 344.742C73.527 344.733 74.7706 345.522 74.5942 346.598C74.4179 347.675 73.2671 347.981 72.2834 348.102C70.6017 348.325 68.8979 348.325 67.2162 348.102C66.818 348.093 66.4388 347.93 66.1582 347.647C65.6849 347.044 66.316 346.144 67.0306 345.865C67.7872 345.724 68.5251 345.497 69.2301 345.188L69.2672 345.178Z" fill="#00C2CB"/>
<path d="M68.2099 424.267C68.4558 424.011 68.7846 423.85 69.1379 423.812C69.3764 423.835 69.5995 423.94 69.7689 424.11C69.9383 424.279 70.0433 424.502 70.066 424.741C70.1173 425.199 70.0601 425.663 69.899 426.096C69.1658 428.536 60.9989 446.16 59.1149 442.995C58.0106 441.139 60.739 434.931 61.5464 433.177C63.0872 429.754 65.3621 426.712 68.2099 424.267Z" fill="#00C2CB"/>
<path d="M64.2287 342.95C64.2287 342.95 63.7368 338.672 64.767 338.31" stroke="#272727" stroke-linecap="round" stroke-linejoin="round"/>
<path d="M63.3184 338.486C63.8447 336.975 64.7526 335.626 65.954 334.57C67.244 333.642 69.3136 333.567 70.2509 334.857C71.2997 336.296 70.2509 338.477 68.6454 339.247C67.0399 340.017 65.1466 339.785 63.3833 339.535C63.3833 339.275 63.3833 339.015 63.3833 338.755L63.3184 338.486Z" fill="#00C2CB"/>
<path d="M67.7178 476.229C58.9693 477.704 50.0353 477.704 41.2868 476.229L31.0039 445.891H78.0007L67.7178 476.229Z" fill="#263238" stroke="#263238" stroke-linecap="round" stroke-linejoin="round"/>
<path d="M2.77539 274.512H414.443" stroke="#B2B2B2" stroke-width="7" stroke-miterlimit="10"/>
<path d="M2.77539 135.15H414.443" stroke="#B2B2B2" stroke-width="7" stroke-miterlimit="10"/>
<path d="M368.6 276.346V81.9727" stroke="#B2B2B2" stroke-width="7" stroke-miterlimit="10"/>
<path d="M251.242 276.346V81.9727" stroke="#B2B2B2" stroke-width="7" stroke-miterlimit="10"/>
<path d="M133.885 276.346V81.9727" stroke="#B2B2B2" stroke-width="7" stroke-miterlimit="10"/>
<path d="M16.5273 276.346V81.9727" stroke="#B2B2B2" stroke-width="7" stroke-miterlimit="10"/>
<path d="M381.968 174.043L378.686 177.325" stroke="#B2B2B2" stroke-linecap="round" stroke-linejoin="round"/>
<path d="M404.357 151.653L384.654 171.357" stroke="#B2B2B2" stroke-linecap="round" stroke-linejoin="round"/>
<path d="M407.934 159.254L393.814 173.373" stroke="#B2B2B2" stroke-linecap="round" stroke-linejoin="round"/>
<path d="M285.862 107.443L282.58 110.726" stroke="#B2B2B2" stroke-linecap="round" stroke-linejoin="round"/>
<path d="M308.254 85.0537L288.551 104.757" stroke="#B2B2B2" stroke-linecap="round" stroke-linejoin="round"/>
<path d="M311.829 92.6543L297.709 106.774" stroke="#B2B2B2" stroke-linecap="round" stroke-linejoin="round"/>
<path d="M70.4015 107.443L67.1191 110.726" stroke="#B2B2B2" stroke-linecap="round" stroke-linejoin="round"/>
<path d="M92.793 85.0537L73.0898 104.757" stroke="#B2B2B2" stroke-linecap="round" stroke-linejoin="round"/>
<path d="M96.3676 92.6543L82.248 106.774" stroke="#B2B2B2" stroke-linecap="round" stroke-linejoin="round"/>
<path d="M216.138 176.721L212.855 180.012" stroke="#B2B2B2" stroke-linecap="round" stroke-linejoin="round"/>
<path d="M238.525 154.34L218.822 174.043" stroke="#B2B2B2" stroke-linecap="round" stroke-linejoin="round"/>
<path d="M242.102 161.932L227.982 176.051" stroke="#B2B2B2" stroke-linecap="round" stroke-linejoin="round"/>
<path d="M39.6788 215.164L30.4277 224.406" stroke="#B2B2B2" stroke-linecap="round" stroke-linejoin="round"/>
<path d="M102.731 152.112L47.2246 207.61" stroke="#B2B2B2" stroke-linecap="round" stroke-linejoin="round"/>
<path d="M112.797 173.512L73.0332 213.276" stroke="#B2B2B2" stroke-linecap="round" stroke-linejoin="round"/>
<path d="M430.109 295.086C430.109 295.086 416.558 287.558 415.558 304.621C414.559 321.683 412.047 432.568 412.047 432.568" stroke="#263238" stroke-width="2" stroke-linecap="round" stroke-linejoin="round"/>
<path d="M408.525 306.125C408.525 306.125 419.573 330.706 414.549 431.065" stroke="#263238" stroke-width="2" stroke-linecap="round" stroke-linejoin="round"/>
<path d="M419.382 298.515C419.382 298.515 414.192 301.843 411.249 298.038C408.306 294.233 413.239 287.274 408.884 284.285C404.529 281.296 397.011 285.844 397.011 285.844C397.011 285.844 402.796 287.549 402.613 290.712C402.429 293.875 399.633 295.067 399.266 293.683C398.899 292.298 396.13 285.339 391.427 288.237C390.071 289.038 388.891 290.106 387.96 291.376C387.029 292.646 386.365 294.092 386.008 295.627C386.008 295.627 396.956 294.453 397.616 298.579C398.276 302.705 393.123 297.855 388.612 297.589C384.101 297.323 379.975 297.992 380.26 300.724C380.365 303.141 380.224 305.561 379.838 307.949C379.838 307.949 383.661 304.548 388.631 304.841C393.6 305.134 393.417 308.298 388.896 308.032C384.376 307.766 380.498 312.075 380.498 312.075C380.498 312.075 384.615 319.116 389.85 322.591C395.085 326.066 396.974 324.828 397.588 322.142C398.203 319.456 396.791 312.579 399.954 312.763C403.117 312.946 394.718 324.682 398.753 325.388C402.787 326.094 406.032 324.911 407.096 322.252L408.16 319.593C408.16 319.593 406.757 312.717 407.362 310.03C407.967 307.344 408.719 310.113 409.434 313.322C410.149 316.531 410.608 324.269 411.983 323.902C413.358 323.536 417.777 317.897 418.813 315.651C419.849 313.404 413.001 306.702 413.083 305.345C413.166 303.988 418.447 306.565 419.272 307.977C419.868 309.036 420.41 310.126 420.895 311.241C420.895 311.241 424.186 309.169 424.104 302.824C424.021 296.479 419.382 298.515 419.382 298.515Z" fill="#00C2CB"/>
<path opacity="0.3" d="M419.382 298.515C419.382 298.515 414.192 301.843 411.249 298.038C408.306 294.233 413.239 287.274 408.884 284.285C404.529 281.296 397.011 285.844 397.011 285.844C397.011 285.844 402.796 287.549 402.613 290.712C402.429 293.875 399.633 295.067 399.266 293.683C398.899 292.298 396.13 285.339 391.427 288.237C390.071 289.038 388.891 290.106 387.96 291.376C387.029 292.646 386.365 294.092 386.008 295.627C386.008 295.627 396.956 294.453 397.616 298.579C398.276 302.705 393.123 297.855 388.612 297.589C384.101 297.323 379.975 297.992 380.26 300.724C380.365 303.141 380.224 305.561 379.838 307.949C379.838 307.949 383.661 304.548 388.631 304.841C393.6 305.134 393.417 308.298 388.896 308.032C384.376 307.766 380.498 312.075 380.498 312.075C380.498 312.075 384.615 319.116 389.85 322.591C395.085 326.066 396.974 324.828 397.588 322.142C398.203 319.456 396.791 312.579 399.954 312.763C403.117 312.946 394.718 324.682 398.753 325.388C402.787 326.094 406.032 324.911 407.096 322.252L408.16 319.593C408.16 319.593 406.757 312.717 407.362 310.03C407.967 307.344 408.719 310.113 409.434 313.322C410.149 316.531 410.608 324.269 411.983 323.902C413.358 323.536 417.777 317.897 418.813 315.651C419.849 313.404 413.001 306.702 413.083 305.345C413.166 303.988 418.447 306.565 419.272 307.977C419.868 309.036 420.41 310.126 420.895 311.241C420.895 311.241 424.186 309.169 424.104 302.824C424.021 296.479 419.382 298.515 419.382 298.515Z" fill="#263238"/>
<path d="M393.113 313.405C396.496 309.233 401.475 303.576 405.647 300.881" stroke="#263238" stroke-linecap="round" stroke-linejoin="round"/>
<path d="M389.189 318.52C389.189 318.52 390.06 317.319 391.463 315.504" stroke="#263238" stroke-linecap="round" stroke-linejoin="round"/>
<path d="M407.848 301.917C407.848 301.917 412.863 309.013 413.798 316.321" stroke="#263238" stroke-linecap="round" stroke-linejoin="round"/>
<path d="M402.154 306.116C402.154 306.116 403.566 305.291 403.071 314.322" stroke="#263238" stroke-linecap="round" stroke-linejoin="round"/>
<path d="M405.83 297.717C405.83 297.717 408.7 295.168 407.178 290.089" stroke="#263238" stroke-linecap="round" stroke-linejoin="round"/>
<path d="M401.943 302.026L399.898 298.276" stroke="#263238" stroke-linecap="round" stroke-linejoin="round"/>
<path d="M397.643 305.849C397.643 305.849 391.133 300.935 387.062 300.688" stroke="#263238" stroke-linecap="round" stroke-linejoin="round"/>
<path d="M437.847 285.129C437.847 285.129 437.645 292.583 431.823 292.941C426.001 293.298 422.407 283.616 416.457 285.945C410.506 288.274 409.929 298.9 409.929 298.9C409.929 298.9 415.586 294.261 418.62 296.608C421.655 298.955 420.958 302.558 419.317 301.99C417.676 301.422 408.828 299.441 408.526 306.125C408.398 308.026 408.657 309.933 409.288 311.731C409.918 313.53 410.906 315.181 412.193 316.586C412.193 316.586 418.483 304.832 423.067 306.968C427.651 309.105 419.281 310.975 415.934 315.321C412.588 319.667 410.433 324.233 413.385 325.81C415.879 327.352 418.208 329.146 420.335 331.164C420.335 331.164 419.537 325.012 423.214 320.235C426.89 315.459 429.934 317.806 426.588 322.142C423.241 326.479 424.91 333.301 424.91 333.301C424.91 333.301 434.766 333.979 441.817 331.118C448.867 328.258 448.913 325.507 446.639 323.068C444.366 320.63 436.554 317.338 438.865 314.303C441.175 311.269 447.235 327.68 450.683 324.105C454.13 320.529 455.166 316.495 453.232 313.616L451.297 310.737C451.297 310.737 443.449 307.454 441.212 305.016C438.975 302.577 442.22 303.714 445.924 305.19C449.628 306.666 457.678 311.479 458.247 309.847C458.815 308.215 456.193 299.955 454.689 297.406C453.186 294.857 441.753 297.131 440.451 296.131C439.149 295.132 445.338 291.547 447.309 291.721C448.776 291.848 450.236 292.05 451.682 292.326C451.682 292.326 451.856 287.614 445.448 283.369C439.039 279.124 437.847 285.129 437.847 285.129Z" fill="#00C2CB"/>
<path opacity="0.2" d="M437.847 285.129C437.847 285.129 437.645 292.583 431.823 292.941C426.001 293.298 422.407 283.616 416.457 285.945C410.506 288.274 409.929 298.9 409.929 298.9C409.929 298.9 415.586 294.261 418.62 296.608C421.655 298.955 420.958 302.558 419.317 301.99C417.676 301.422 408.828 299.441 408.526 306.125C408.398 308.026 408.657 309.933 409.288 311.731C409.918 313.53 410.906 315.181 412.193 316.586C412.193 316.586 418.483 304.832 423.067 306.968C427.651 309.105 419.281 310.975 415.934 315.321C412.588 319.667 410.433 324.233 413.385 325.81C415.879 327.352 418.208 329.146 420.335 331.164C420.335 331.164 419.537 325.012 423.214 320.235C426.89 315.459 429.934 317.806 426.588 322.142C423.241 326.479 424.91 333.301 424.91 333.301C424.91 333.301 434.766 333.979 441.817 331.118C448.867 328.258 448.913 325.507 446.639 323.068C444.366 320.63 436.554 317.338 438.865 314.303C441.175 311.269 447.235 327.68 450.683 324.105C454.13 320.529 455.166 316.495 453.232 313.616L451.297 310.737C451.297 310.737 443.449 307.454 441.212 305.016C438.975 302.577 442.22 303.714 445.924 305.19C449.628 306.666 457.678 311.479 458.247 309.847C458.815 308.215 456.193 299.955 454.689 297.406C453.186 294.857 441.753 297.131 440.451 296.131C439.149 295.132 445.338 291.547 447.309 291.721C448.776 291.848 450.236 292.05 451.682 292.326C451.682 292.326 451.856 287.614 445.448 283.369C439.039 279.124 437.847 285.129 437.847 285.129Z" fill="#263238"/>
<path d="M434.848 321.583C433.014 315.348 430.704 306.51 430.85 300.495" stroke="#263238" stroke-linecap="round" stroke-linejoin="round"/>
<path d="M437.27 328.973C437.27 328.973 436.655 327.277 435.803 324.637" stroke="#263238" stroke-linecap="round" stroke-linejoin="round"/>
<path d="M433.391 298.992C433.391 298.992 443.916 298.799 451.865 302.852" stroke="#263238" stroke-linecap="round" stroke-linejoin="round"/>
<path d="M433.721 307.519C433.721 307.519 433.849 305.548 442.532 312.241" stroke="#263238" stroke-linecap="round" stroke-linejoin="round"/>
<path d="M427.807 298.157C427.807 298.157 427.211 293.573 421.096 291.593" stroke="#263238" stroke-linecap="round" stroke-linejoin="round"/>
<path d="M429.476 304.97L424.332 304.466" stroke="#263238" stroke-linecap="round" stroke-linejoin="round"/>
<path d="M430.374 311.893C430.374 311.893 421.013 315.056 417.996 318.962" stroke="#263238" stroke-linecap="round" stroke-linejoin="round"/>
<path d="M375.418 334.722C375.418 334.722 405.032 354.278 404.519 430.056" stroke="#263238" stroke-width="2" stroke-linecap="round" stroke-linejoin="round"/>
<path d="M411.918 329.524C411.918 329.524 411.001 338.105 404.226 337.977C397.45 337.849 394.251 326.315 387.163 328.451C380.076 330.587 378.444 342.818 378.444 342.818C378.444 342.818 385.403 337.995 388.685 340.984C391.968 343.973 390.822 348.071 388.979 347.255C387.136 346.439 377.115 343.322 376.143 351.005C375.809 353.189 375.922 355.418 376.475 357.557C377.028 359.695 378.01 361.699 379.361 363.447C379.361 363.447 387.732 350.474 392.811 353.362C397.89 356.25 388.071 357.634 383.798 362.319C379.526 367.005 376.619 372.093 379.865 374.184C383.111 376.274 387.374 381.023 387.374 381.023C387.374 381.023 387.035 373.853 391.738 368.692C396.442 363.53 399.715 366.509 395.406 371.204C391.097 375.898 392.417 383.93 392.417 383.93C392.417 383.93 403.731 385.635 412.138 383.013C420.546 380.391 420.849 377.209 418.456 374.184C416.063 371.158 407.325 366.619 410.314 363.337C413.303 360.055 418.712 379.556 423.021 375.761C427.331 371.965 428.917 367.399 426.955 363.896L424.993 360.394C424.993 360.394 416.246 355.865 413.862 352.839C411.478 349.814 415.137 351.427 419.281 353.481C423.425 355.535 432.254 361.852 433.034 360.018C433.813 358.184 431.585 348.402 430.1 345.348C428.614 342.295 415.201 343.808 413.789 342.525C412.377 341.241 419.858 337.748 422.114 338.087C423.797 338.375 425.465 338.748 427.111 339.206C427.111 339.206 427.752 333.778 420.757 328.267C413.761 322.757 411.918 329.524 411.918 329.524Z" fill="#00C2CB"/>
<path opacity="0.3" d="M411.918 329.524C411.918 329.524 411.001 338.105 404.226 337.977C397.45 337.849 394.251 326.315 387.163 328.451C380.076 330.587 378.444 342.818 378.444 342.818C378.444 342.818 385.403 337.995 388.685 340.984C391.968 343.973 390.822 348.071 388.979 347.255C387.136 346.439 377.115 343.322 376.143 351.005C375.809 353.189 375.922 355.418 376.475 357.557C377.028 359.695 378.01 361.699 379.361 363.447C379.361 363.447 387.732 350.474 392.811 353.362C397.89 356.25 388.071 357.634 383.798 362.319C379.526 367.005 376.619 372.093 379.865 374.184C383.111 376.274 387.374 381.023 387.374 381.023C387.374 381.023 387.035 373.853 391.738 368.692C396.442 363.53 399.715 366.509 395.406 371.204C391.097 375.898 392.417 383.93 392.417 383.93C392.417 383.93 403.731 385.635 412.138 383.013C420.546 380.391 420.849 377.209 418.456 374.184C416.063 371.158 407.325 366.619 410.314 363.337C413.303 360.055 418.712 379.556 423.021 375.761C427.331 371.965 428.917 367.399 426.955 363.896L424.993 360.394C424.993 360.394 416.246 355.865 413.862 352.839C411.478 349.814 415.137 351.427 419.281 353.481C423.425 355.535 432.254 361.852 433.034 360.018C433.813 358.184 431.585 348.402 430.1 345.348C428.614 342.295 415.201 343.808 413.789 342.525C412.377 341.241 419.858 337.748 422.114 338.087C423.797 338.375 425.465 338.748 427.111 339.206C427.111 339.206 427.752 333.778 420.757 328.267C413.761 322.757 411.918 329.524 411.918 329.524Z" fill="#263238"/>
<path d="M405.033 371.332C403.456 363.997 401.677 353.554 402.41 346.577" stroke="#263238" stroke-linecap="round" stroke-linejoin="round"/>
<path d="M407.114 380.088C407.114 380.088 406.564 378.08 405.83 374.953" stroke="#263238" stroke-linecap="round" stroke-linejoin="round"/>
<path d="M405.463 345.109C405.463 345.109 417.63 345.889 426.422 351.307" stroke="#263238" stroke-linecap="round" stroke-linejoin="round"/>
<path d="M405.033 355.03C405.033 355.03 405.372 352.775 414.761 361.311" stroke="#263238" stroke-linecap="round" stroke-linejoin="round"/>
<path d="M399.11 343.633C399.11 343.633 398.853 338.251 391.977 335.437" stroke="#263238" stroke-linecap="round" stroke-linejoin="round"/>
<path d="M400.384 351.656L394.488 350.593" stroke="#263238" stroke-linecap="round" stroke-linejoin="round"/>
<path d="M400.76 359.725C400.76 359.725 389.666 362.475 385.824 366.72" stroke="#263238" stroke-linecap="round" stroke-linejoin="round"/>
<path d="M386.961 394.436C386.961 394.436 406.022 408.986 408.049 430.56L404.033 358.303" stroke="#263238" stroke-width="2" stroke-linecap="round" stroke-linejoin="round"/>
<path d="M433.116 383.893C408.031 379.382 408.031 430.561 408.031 430.561" stroke="#263238" stroke-width="2" stroke-linecap="round" stroke-linejoin="round"/>
<path d="M411.039 430.057C411.039 430.057 396.488 324.188 438.636 324.188" stroke="#263238" stroke-width="2" stroke-linecap="round" stroke-linejoin="round"/>
<path d="M423.562 380.867C420.133 377.017 412.853 377.017 408.562 386.873C404.271 396.729 408.14 395.005 408.14 395.005C408.14 395.005 416.273 392.438 421.416 390.724C426.56 389.009 433.455 384.709 433.84 387.285C434.225 389.862 430.411 392.429 425.698 393.282C420.985 394.134 408.562 397.572 409.855 400.14C411.147 402.707 414.136 410.418 414.136 410.418C417.799 407.313 421.661 404.453 425.698 401.854C431.272 398.425 434.692 399.709 431.694 403.569C428.696 407.429 420.133 411.701 421.847 416.845C423.562 421.988 433.84 428.406 433.84 428.406C433.84 428.406 435.123 417.697 438.121 414.278C441.119 410.858 441.119 414.699 440.267 420.695C439.836 423.245 439.549 425.816 439.405 428.397L451.407 432.688C451.407 432.688 455.688 426.27 457.825 424.115L459.97 421.979C459.97 421.979 450.545 413.837 450.114 408.694C449.683 403.55 456.532 408.694 458.686 409.556C460.841 410.418 464.252 416.405 464.252 416.405C464.252 416.405 466.397 406.558 466.828 403.129L467.25 399.7C467.25 399.7 458.255 396.27 454.826 396.27C451.397 396.27 449.692 398.847 449.692 395.418C449.692 391.989 453.112 389.853 456.972 390.274C460.461 390.86 463.897 391.722 467.25 392.851C467.25 392.851 469.826 390.705 468.964 384.278C468.102 377.851 465.966 377.86 460.823 379.565C455.679 381.271 452.259 385.14 448.408 385.14C444.558 385.14 446.694 380.427 449.261 379.144C451.828 377.86 458.255 375.284 459.539 374.853C460.823 374.422 452.69 368.435 448.408 367.573C444.127 366.711 438.571 369.737 438.983 373.991C439.873 382.994 426.982 384.709 423.562 380.867Z" fill="#00C2CB"/>
<path d="M451.133 424.959C451.261 426.252 451.353 427.545 451.408 428.828" stroke="#263238" stroke-linecap="round" stroke-linejoin="round"/>
<path d="M442.531 394.207C446.292 402.692 448.998 411.606 450.59 420.75" stroke="#263238" stroke-linecap="round" stroke-linejoin="round"/>
<path d="M440.982 390.769C438.864 386.185 437.314 383.435 437.314 383.435C439.65 382.327 441.592 380.533 442.88 378.291C443.88 376.262 445.347 374.499 447.161 373.147" stroke="#263238" stroke-linecap="round" stroke-linejoin="round"/>
<path d="M422.279 397.985C422.279 397.985 437.701 391.567 437.701 392.85" stroke="#263238" stroke-linecap="round" stroke-linejoin="round"/>
<path d="M446.291 389.852C446.291 389.852 453.14 386.423 459.127 386.423" stroke="#263238" stroke-linecap="round" stroke-linejoin="round"/>
<path d="M443.697 400.121C440.724 402.563 437.997 405.29 435.555 408.263C433.052 411.21 431.029 414.533 429.559 418.11" stroke="#263238" stroke-linecap="round" stroke-linejoin="round"/>
<path d="M448.408 401.844C448.408 401.844 457.403 399.268 462.115 403.559" stroke="#263238" stroke-linecap="round" stroke-linejoin="round"/>
<path d="M464.702 343.964C460.035 341.213 454.883 341.14 452.352 338.233C449.822 335.327 454.782 333.851 457.441 334.951C460.1 336.051 466.252 339.214 467.416 339.902C468.58 340.59 467.774 330.513 465.582 326.718C463.391 322.922 457.514 320.712 454.58 323.811C448.355 330.358 438.636 321.776 439.296 316.66C439.956 311.544 435.189 306.052 424.938 309.27C414.688 312.488 418.52 314.285 418.52 314.285C418.52 314.285 425.8 318.741 430.439 321.501C435.079 324.261 442.826 326.626 441.167 328.634C439.507 330.642 435.042 329.422 431.301 326.424C427.56 323.426 416.833 316.293 415.715 318.952C414.596 321.611 410.764 328.918 410.764 328.918C415.512 329.65 420.207 330.691 424.819 332.035C431.054 333.998 432.328 337.427 427.45 337.692C422.573 337.958 413.698 334.291 410.947 338.958C408.196 343.625 410.076 355.599 410.076 355.599C410.076 355.599 419.006 349.547 423.563 349.566C428.12 349.584 425.204 352.105 420.116 355.397C417.896 356.744 415.754 358.213 413.698 359.798L418.282 371.717C418.282 371.717 425.947 370.736 428.963 370.947L431.989 371.158C431.989 371.158 431.989 358.707 435.555 355.021C439.122 351.335 439.764 359.871 440.525 362.044C441.286 364.217 439.003 370.745 439.003 370.745C439.003 370.745 447.841 365.904 450.711 363.979L453.581 362.062C453.581 362.062 450.271 353.022 448.025 350.428C445.778 347.833 442.716 348.236 445.274 345.99C447.832 343.744 451.692 344.926 453.929 348.117C455.776 351.134 457.382 354.292 458.733 357.561C458.733 357.561 462.034 358.102 466.325 353.242C470.616 348.383 469.36 346.723 464.702 343.964ZM424.159 357.671C420.73 355.956 428.871 352.536 428.871 352.536C431.87 352.105 427.588 359.385 424.159 357.671ZM429.935 341.681C428.468 340.947 432.851 339.489 432.851 339.489C439.186 340.709 431.393 342.414 429.935 341.681Z" fill="#00C2CB"/>
<path d="M424.067 366.399C423.15 367.316 422.233 368.233 421.316 369.15" stroke="#263238" stroke-linecap="round" stroke-linejoin="round"/>
<path d="M441.652 339.737C437.708 348.14 432.751 356.028 426.891 363.227" stroke="#263238" stroke-linecap="round" stroke-linejoin="round"/>
<path d="M443.238 336.326C445.292 331.742 446.346 328.698 446.346 328.698C448.711 329.739 451.338 330.03 453.874 329.533C456.062 328.957 458.356 328.91 460.567 329.395" stroke="#263238" stroke-linecap="round" stroke-linejoin="round"/>
<path d="M439.507 335.199C440.479 334.355 425.516 326.947 425.516 326.947" stroke="#263238" stroke-linecap="round" stroke-linejoin="round"/>
<path d="M447.391 339.7C447.391 339.7 454.469 342.634 458.393 347.163" stroke="#263238" stroke-linecap="round" stroke-linejoin="round"/>
<path d="M437.938 344.505C434.147 343.863 430.303 343.59 426.459 343.689C422.591 343.733 418.754 344.386 415.09 345.623" stroke="#263238" stroke-linecap="round" stroke-linejoin="round"/>
<path d="M439.734 349.181C439.734 349.181 447.573 354.278 447.427 360.696" stroke="#263238" stroke-linecap="round" stroke-linejoin="round"/>
<path d="M398.138 403.321C394.379 401.102 390.234 401.047 388.199 398.736C386.164 396.426 390.161 395.206 392.297 396.087C394.434 396.967 399.385 399.525 400.32 400.075C401.255 400.625 400.613 392.52 398.871 389.467C397.129 386.414 392.371 384.635 389.996 387.129C384.981 392.401 377.16 385.488 377.692 381.371C378.224 377.254 374.382 372.835 366.139 375.43C357.897 378.025 360.968 379.464 360.968 379.464C360.968 379.464 366.827 383.049 370.577 385.268C374.327 387.486 380.552 389.394 379.214 391.016C377.875 392.639 374.281 391.64 371.274 389.183C368.267 386.726 359.63 381.032 358.75 383.168C357.869 385.304 354.761 391.2 354.761 391.2C358.581 391.782 362.358 392.618 366.066 393.703C371.09 395.28 372.117 398.039 368.193 398.287C364.269 398.535 357.145 395.536 354.926 399.305C352.708 403.073 354.22 412.7 354.22 412.7C354.22 412.7 361.408 407.832 365.076 407.841C368.743 407.85 366.396 409.894 362.325 412.535C360.547 413.618 358.833 414.803 357.191 416.083L360.913 425.628C363.762 425.247 366.631 425.042 369.504 425.013L371.943 425.188C371.943 425.188 371.943 415.166 374.813 412.196C377.683 409.225 378.205 416.102 378.81 417.853C379.415 419.604 377.527 424.876 377.527 424.876C377.527 424.876 384.651 420.979 386.952 419.43L389.262 417.88C389.262 417.88 386.604 410.61 384.788 408.519C382.973 406.429 380.516 406.759 382.597 404.943C384.678 403.128 387.796 404.091 389.565 406.658C391.052 409.088 392.343 411.632 393.425 414.268C393.425 414.268 396.084 414.699 399.54 410.784C402.997 406.869 401.888 405.539 398.138 403.321ZM365.516 414.323C362.756 412.957 369.275 410.206 369.275 410.206C371.714 409.867 368.267 415.707 365.516 414.35V414.323ZM370.155 401.487C368.982 400.9 372.502 399.727 372.502 399.727C377.6 400.698 371.329 402.074 370.192 401.478L370.155 401.487Z" fill="#00C2CB"/>
<path d="M365.443 421.373C364.719 422.134 363.986 422.868 363.225 423.583" stroke="#263238" stroke-linecap="round" stroke-linejoin="round"/>
<path d="M379.589 399.919C376.407 406.686 372.403 413.035 367.67 418.824" stroke="#263238" stroke-linecap="round" stroke-linejoin="round"/>
<path d="M380.865 397.169C382.516 393.501 383.368 391.035 383.368 391.035C385.272 391.873 387.388 392.107 389.429 391.704C391.189 391.246 393.033 391.208 394.811 391.594" stroke="#263238" stroke-linecap="round" stroke-linejoin="round"/>
<path d="M366.607 389.604C366.607 389.604 378.646 395.592 377.866 396.27" stroke="#263238" stroke-linecap="round" stroke-linejoin="round"/>
<path d="M384.201 399.892C384.201 399.892 389.904 402.248 393.067 405.888" stroke="#263238" stroke-linecap="round" stroke-linejoin="round"/>
<path d="M376.61 403.788C373.557 403.272 370.462 403.054 367.368 403.137C364.249 403.171 361.156 403.694 358.199 404.687" stroke="#263238" stroke-linecap="round" stroke-linejoin="round"/>
<path d="M378.049 407.521C378.049 407.521 384.357 411.628 384.238 416.753" stroke="#263238" stroke-linecap="round" stroke-linejoin="round"/>
<path d="M382.836 332.577C382.836 332.577 378.123 336.006 375.125 332.577C372.127 329.148 376.408 322.299 372.127 319.741C367.845 317.183 361.024 321.868 361.024 321.868C361.024 321.868 366.589 323.16 366.589 326.159C366.589 329.157 364.022 330.44 363.591 329.157C363.16 327.873 360.162 321.446 355.88 324.444C354.642 325.275 353.586 326.349 352.776 327.6C351.966 328.852 351.419 330.254 351.167 331.724C351.167 331.724 361.454 330.009 362.307 333.869C363.16 337.729 358.025 333.438 353.744 333.438C349.462 333.438 345.602 334.291 346.033 336.867C346.262 339.145 346.262 341.439 346.033 343.716C348.247 341.638 351.132 340.421 354.165 340.287C358.878 340.287 358.878 343.285 354.596 343.285C350.315 343.285 346.886 347.576 346.886 347.576C346.886 347.576 351.167 353.994 356.311 357.002C361.454 360.009 363.16 358.707 363.591 356.14C364.022 353.573 362.307 347.145 365.305 347.145C368.303 347.145 361.024 358.707 364.874 359.138C368.725 359.569 371.732 358.285 372.585 355.709L373.447 353.142C373.447 353.142 371.732 346.724 372.163 344.147C372.594 341.571 373.447 344.147 374.3 347.145C375.152 350.144 376.014 357.423 377.298 357.002C378.581 356.58 382.441 350.996 383.294 348.86C384.147 346.724 377.298 340.718 377.298 339.435C377.298 338.151 382.441 340.287 383.294 341.58C383.919 342.548 384.492 343.549 385.008 344.578C385.008 344.578 388.007 342.433 387.585 336.437C387.163 330.44 382.836 332.577 382.836 332.577Z" fill="#00C2CB"/>
<path d="M358.832 348.116C361.793 343.981 366.167 338.361 369.981 335.583" stroke="#263238" stroke-linecap="round" stroke-linejoin="round"/>
<path d="M355.412 353.142C355.412 353.142 356.173 351.95 357.402 350.171" stroke="#263238" stroke-linecap="round" stroke-linejoin="round"/>
<path d="M372.127 336.437C372.127 336.437 377.261 342.854 378.545 349.713" stroke="#263238" stroke-linecap="round" stroke-linejoin="round"/>
<path d="M366.982 340.718C366.982 340.718 368.266 339.865 368.266 348.429" stroke="#263238" stroke-linecap="round" stroke-linejoin="round"/>
<path d="M369.98 332.577C369.98 332.577 372.548 330.01 370.833 325.297" stroke="#263238" stroke-linecap="round" stroke-linejoin="round"/>
<path d="M366.552 336.868L364.416 333.438" stroke="#263238" stroke-linecap="round" stroke-linejoin="round"/>
<path d="M362.701 340.718C362.701 340.718 356.283 336.437 352.414 336.437" stroke="#263238" stroke-linecap="round" stroke-linejoin="round"/>
<path d="M426.093 428.553H392.977V476.22H426.093V428.553Z" fill="#263238" stroke="#263238" stroke-width="2" stroke-linecap="round" stroke-linejoin="round"/>
<path d="M42.7551 476.22H18" stroke="#263238" stroke-miterlimit="10" stroke-linecap="round"/>
<path d="M393.356 476.22H43.1172" stroke="#263238" stroke-miterlimit="10" stroke-linecap="round"/>
<path d="M291.746 109.001H123.045C114.184 109.001 107 116.185 107 125.046V460.615C107 469.476 114.184 476.66 123.045 476.66H291.746C300.608 476.66 307.791 469.476 307.791 460.615V125.046C307.791 116.185 300.608 109.001 291.746 109.001Z" fill="#263238" stroke="#263238" stroke-miterlimit="10" stroke-linecap="round"/>
<path d="M293.295 144.181H120.99V447.421H293.295V144.181Z" fill="#E5E5E5" stroke="#263238" stroke-miterlimit="10" stroke-linecap="round"/>
<path d="M168.692 285.489L157.891 274.601L201.023 278.943L203.747 286.346L168.692 285.489Z" fill="#00C2CB"/>
<path d="M203.746 286.543L168.688 285.687C168.663 285.687 168.638 285.682 168.615 285.672C168.592 285.663 168.571 285.649 168.554 285.631L157.756 274.739C157.727 274.71 157.707 274.673 157.7 274.633C157.693 274.592 157.699 274.551 157.716 274.514C157.734 274.477 157.762 274.447 157.798 274.428C157.833 274.408 157.873 274.399 157.914 274.403L201.046 278.746C201.083 278.749 201.118 278.763 201.147 278.785C201.177 278.807 201.199 278.838 201.212 278.872L203.936 286.279C203.946 286.309 203.949 286.341 203.945 286.372C203.941 286.404 203.93 286.434 203.912 286.461C203.893 286.486 203.868 286.507 203.839 286.522C203.81 286.536 203.778 286.544 203.746 286.543ZM168.775 285.296L203.462 286.141L200.88 279.125L158.419 274.849L168.775 285.296Z" fill="#263238"/>
<path d="M202.998 278.69L168.693 285.489L168.152 338.791L202.749 337.887L202.998 278.69Z" fill="#00C2CB"/>
<path d="M168.153 338.988C168.101 338.987 168.051 338.966 168.014 338.929C167.995 338.911 167.98 338.889 167.97 338.864C167.959 338.84 167.955 338.813 167.955 338.787L168.496 285.489C168.496 285.443 168.512 285.399 168.54 285.364C168.569 285.329 168.609 285.304 168.654 285.295L202.958 278.497C202.987 278.491 203.017 278.492 203.046 278.5C203.075 278.507 203.101 278.521 203.124 278.54C203.146 278.559 203.164 278.583 203.176 278.61C203.188 278.636 203.195 278.665 203.195 278.694L202.946 337.887C202.947 337.913 202.942 337.938 202.933 337.962C202.923 337.986 202.909 338.008 202.891 338.026C202.873 338.045 202.852 338.059 202.828 338.069C202.804 338.079 202.779 338.084 202.753 338.084L168.156 338.988H168.153ZM168.887 285.651L168.354 338.586L202.552 337.697L202.8 278.931L168.887 285.651Z" fill="#263238"/>
<path d="M242.733 286.46L256.839 275.757L212.594 279.579L203.746 286.345L242.733 286.46Z" fill="#00C2CB"/>
<path d="M242.734 286.658L203.748 286.543C203.706 286.543 203.666 286.53 203.632 286.506C203.598 286.482 203.572 286.448 203.558 286.409C203.546 286.37 203.546 286.328 203.558 286.288C203.57 286.249 203.593 286.214 203.625 286.188L212.485 279.421C212.515 279.399 212.55 279.385 212.587 279.382L256.829 275.56C256.872 275.555 256.915 275.565 256.952 275.588C256.988 275.611 257.016 275.645 257.03 275.686C257.046 275.726 257.048 275.77 257.037 275.811C257.025 275.853 257.001 275.889 256.967 275.915L242.861 286.618C242.825 286.647 242.78 286.661 242.734 286.658ZM204.328 286.148L242.667 286.263L256.177 275.998L212.67 279.753L204.328 286.148Z" fill="#263238"/>
<path d="M202.997 278.69L242.734 286.46L243.207 338.744L202.748 337.887L202.997 278.69Z" fill="#00C2CB"/>
<path d="M243.207 338.941L202.748 338.084C202.696 338.083 202.647 338.062 202.611 338.025C202.575 337.988 202.555 337.938 202.555 337.887L202.803 278.69C202.803 278.662 202.81 278.633 202.822 278.607C202.834 278.581 202.852 278.558 202.874 278.54C202.896 278.521 202.922 278.507 202.95 278.5C202.978 278.492 203.008 278.491 203.036 278.497L242.773 286.266C242.818 286.275 242.859 286.299 242.889 286.334C242.919 286.369 242.935 286.414 242.935 286.46L243.409 338.744C243.407 338.797 243.386 338.847 243.35 338.886C243.311 338.922 243.26 338.941 243.207 338.941ZM202.938 337.693L242.998 338.542L242.528 286.622L203.186 278.931L202.938 337.693Z" fill="#263238"/>
<path d="M202.996 278.69L218.141 258.84L256.144 268.805L242.733 286.46L202.996 278.69Z" fill="#00C2CB"/>
<path d="M242.733 286.658H242.693L202.957 278.884C202.924 278.878 202.893 278.864 202.868 278.842C202.842 278.821 202.822 278.793 202.811 278.762C202.799 278.73 202.796 278.697 202.801 278.664C202.806 278.631 202.819 278.599 202.838 278.572L217.983 258.722C218.006 258.691 218.038 258.668 218.075 258.655C218.111 258.643 218.151 258.641 218.188 258.651L256.192 268.615C256.224 268.622 256.254 268.638 256.278 268.66C256.302 268.682 256.32 268.71 256.33 268.742C256.34 268.772 256.343 268.804 256.339 268.836C256.334 268.868 256.321 268.898 256.302 268.923L242.879 286.579C242.862 286.602 242.84 286.621 242.815 286.634C242.789 286.648 242.762 286.656 242.733 286.658ZM203.344 278.56L242.65 286.243L255.809 268.923L218.216 259.053L203.344 278.56Z" fill="#263238"/>
<path d="M168.692 285.489L157.195 268.343L189.869 259.073L202.996 278.691L168.692 285.489Z" fill="#00C2CB"/>
<path d="M168.693 285.687C168.66 285.687 168.628 285.68 168.599 285.664C168.57 285.649 168.545 285.627 168.527 285.6L157.034 268.454C157.017 268.428 157.006 268.398 157.002 268.368C156.998 268.337 157.001 268.306 157.01 268.276C157.021 268.247 157.039 268.221 157.061 268.2C157.084 268.178 157.111 268.163 157.141 268.154L189.814 258.884C189.855 258.872 189.898 258.874 189.938 258.888C189.977 258.902 190.012 258.928 190.036 258.963L203.159 278.584C203.177 278.611 203.188 278.641 203.192 278.673C203.195 278.705 203.191 278.738 203.179 278.768C203.167 278.797 203.147 278.824 203.122 278.844C203.098 278.864 203.068 278.878 203.036 278.884L168.728 285.683L168.693 285.687ZM157.512 268.458L168.783 285.272L202.669 278.561L189.787 259.306L157.512 268.458Z" fill="#263238"/>
<path d="M168.152 338.792L209.038 339.802L242.655 338.401L202.749 337.888L168.152 338.792Z" fill="#263238"/>
<path d="M209.046 339.999L168.149 338.988C168.097 338.986 168.049 338.965 168.013 338.928C167.977 338.891 167.956 338.842 167.955 338.791C167.955 338.739 167.975 338.69 168.011 338.653C168.048 338.616 168.097 338.595 168.149 338.594L202.745 337.689L242.659 338.203C242.711 338.205 242.759 338.226 242.795 338.263C242.831 338.3 242.852 338.349 242.853 338.4C242.853 338.451 242.833 338.5 242.798 338.537C242.763 338.574 242.714 338.595 242.663 338.598L209.046 339.999ZM175.93 338.783L209.042 339.604L235.407 338.507L202.745 338.084L175.93 338.783Z" fill="#263238"/>
<path d="M200.763 261.138V254.932C202.053 253.572 203.233 252.112 204.293 250.566C205.314 249.08 206.148 247.474 206.776 245.785C207.383 244.154 207.694 242.428 207.692 240.688C207.692 239.43 207.472 238.508 207.033 237.924C206.593 237.34 205.935 237.116 205.059 237.253C204.701 237.294 204.355 237.407 204.041 237.584C203.727 237.761 203.452 237.999 203.231 238.283C202.762 238.911 202.522 239.68 202.552 240.463C202.544 240.912 202.595 241.361 202.702 241.797L203.022 243.017L197.198 245.323C197 244.659 196.842 243.984 196.724 243.301C196.61 242.612 196.553 241.915 196.555 241.217C196.555 238.406 197.298 236.096 198.785 234.288C200.272 232.48 202.406 231.385 205.185 231.003C208.015 230.614 210.196 231.169 211.731 232.669C213.265 234.17 214.03 236.504 214.025 239.673C214.034 241.624 213.733 243.565 213.132 245.421C212.518 247.289 211.653 249.064 210.562 250.7C209.394 252.45 208.062 254.087 206.587 255.588V260.325L200.763 261.138ZM200.55 271.403V264.368L206.843 263.499V270.543L200.55 271.403Z" fill="#263238"/>
<path d="M236.52 243.08H224.328C224.276 243.08 224.226 243.06 224.189 243.023C224.152 242.986 224.131 242.935 224.131 242.883C224.131 242.831 224.152 242.78 224.189 242.743C224.226 242.706 224.276 242.686 224.328 242.686H236.532C236.584 242.686 236.634 242.706 236.671 242.743C236.708 242.78 236.729 242.831 236.729 242.883C236.728 242.91 236.723 242.936 236.712 242.961C236.701 242.985 236.685 243.007 236.666 243.026C236.646 243.044 236.623 243.058 236.598 243.068C236.573 243.077 236.547 243.081 236.52 243.08Z" fill="#263238"/>
<path d="M188.744 243.08H176.557C176.504 243.08 176.454 243.06 176.417 243.023C176.38 242.986 176.359 242.935 176.359 242.883C176.359 242.831 176.38 242.78 176.417 242.743C176.454 242.706 176.504 242.686 176.557 242.686H188.76C188.812 242.686 188.863 242.706 188.9 242.743C188.937 242.78 188.957 242.831 188.957 242.883C188.958 242.91 188.952 242.937 188.941 242.962C188.93 242.987 188.914 243.01 188.894 243.028C188.874 243.047 188.851 243.061 188.825 243.07C188.799 243.079 188.772 243.083 188.744 243.08Z" fill="#263238"/>
<path d="M220.502 236.171C220.461 236.171 220.42 236.158 220.387 236.134C220.353 236.109 220.328 236.075 220.315 236.036C220.302 235.997 220.301 235.954 220.314 235.915C220.326 235.875 220.351 235.84 220.384 235.816L227.92 230.162C227.963 230.132 228.015 230.119 228.067 230.126C228.118 230.133 228.165 230.16 228.197 230.201C228.228 230.243 228.242 230.296 228.234 230.348C228.227 230.4 228.199 230.446 228.157 230.478L220.621 236.131C220.587 236.158 220.545 236.172 220.502 236.171Z" fill="#263238"/>
<path d="M189.731 257.514C189.689 257.514 189.649 257.501 189.615 257.477C189.582 257.453 189.556 257.419 189.543 257.379C189.53 257.34 189.53 257.297 189.542 257.258C189.555 257.218 189.579 257.184 189.612 257.159L197.149 251.505C197.191 251.474 197.243 251.46 197.295 251.468C197.347 251.475 197.394 251.503 197.425 251.545C197.456 251.587 197.469 251.639 197.461 251.691C197.454 251.742 197.427 251.789 197.386 251.821L189.849 257.475C189.814 257.499 189.773 257.512 189.731 257.514Z" fill="#263238"/>
<path d="M193.34 232.247C193.297 232.245 193.256 232.231 193.221 232.207L185.689 226.553C185.653 226.521 185.631 226.476 185.626 226.427C185.621 226.379 185.635 226.33 185.664 226.291C185.692 226.252 185.735 226.225 185.782 226.215C185.83 226.205 185.879 226.213 185.922 226.238L193.458 231.891C193.479 231.907 193.497 231.926 193.51 231.949C193.523 231.971 193.532 231.996 193.535 232.021C193.539 232.047 193.538 232.073 193.531 232.098C193.525 232.123 193.513 232.147 193.498 232.168C193.48 232.193 193.456 232.213 193.429 232.227C193.401 232.24 193.371 232.247 193.34 232.247Z" fill="#263238"/>
<path d="M224.115 253.597C224.073 253.597 224.031 253.584 223.997 253.558L216.46 247.908C216.419 247.876 216.392 247.829 216.385 247.778C216.377 247.726 216.39 247.674 216.421 247.632C216.452 247.59 216.499 247.562 216.551 247.555C216.603 247.547 216.655 247.561 216.697 247.592L224.234 253.242C224.276 253.273 224.303 253.32 224.311 253.372C224.318 253.424 224.305 253.476 224.273 253.518C224.255 253.542 224.231 253.562 224.204 253.576C224.176 253.59 224.146 253.597 224.115 253.597Z" fill="#263238"/>
<path d="M205.744 228.559C205.692 228.559 205.642 228.539 205.605 228.501C205.568 228.464 205.547 228.414 205.547 228.362V220.197C205.547 220.145 205.568 220.095 205.605 220.058C205.642 220.021 205.692 220 205.744 220C205.797 220 205.847 220.021 205.884 220.058C205.921 220.095 205.942 220.145 205.942 220.197V228.362C205.942 228.414 205.921 228.464 205.884 228.501C205.847 228.539 205.797 228.559 205.744 228.559Z" fill="#263238"/>
<path d="M165.54 359.7V371.868H162.984V357.27H166.98L172.308 369.438V357.27H174.846V371.868H170.868L165.54 359.7Z" fill="#272727"/>
<path d="M192.619 364.542C192.619 365.61 192.433 366.606 192.061 367.53C191.689 368.442 191.167 369.24 190.495 369.924C189.823 370.596 189.025 371.124 188.101 371.508C187.177 371.892 186.157 372.084 185.041 372.084C183.925 372.084 182.905 371.892 181.981 371.508C181.057 371.124 180.259 370.596 179.587 369.924C178.915 369.24 178.393 368.442 178.021 367.53C177.649 366.606 177.463 365.61 177.463 364.542C177.463 363.486 177.649 362.496 178.021 361.572C178.393 360.648 178.915 359.85 179.587 359.178C180.259 358.506 181.057 357.978 181.981 357.594C182.905 357.198 183.925 357 185.041 357C186.157 357 187.177 357.198 188.101 357.594C189.025 357.978 189.823 358.506 190.495 359.178C191.167 359.85 191.689 360.648 192.061 361.572C192.433 362.496 192.619 363.486 192.619 364.542ZM189.505 366.63C189.757 366.006 189.883 365.31 189.883 364.542C189.883 363.774 189.757 363.078 189.505 362.454C189.265 361.83 188.929 361.296 188.497 360.852C188.065 360.408 187.555 360.066 186.967 359.826C186.379 359.586 185.737 359.466 185.041 359.466C184.357 359.466 183.721 359.586 183.133 359.826C182.545 360.066 182.035 360.408 181.603 360.852C181.171 361.296 180.829 361.83 180.577 362.454C180.337 363.078 180.217 363.774 180.217 364.542C180.217 365.31 180.337 366.006 180.577 366.63C180.829 367.254 181.171 367.788 181.603 368.232C182.035 368.676 182.545 369.018 183.133 369.258C183.721 369.498 184.357 369.618 185.041 369.618C185.737 369.618 186.379 369.498 186.967 369.258C187.555 369.018 188.065 368.676 188.497 368.232C188.929 367.788 189.265 367.254 189.505 366.63Z" fill="#272727"/>
<path d="M204.417 369.456C205.305 369.456 206.103 369.372 206.811 369.204C207.531 369.024 208.143 368.736 208.647 368.34C209.151 367.944 209.535 367.434 209.799 366.81C210.075 366.174 210.213 365.4 210.213 364.488C210.213 363.636 210.075 362.91 209.799 362.31C209.523 361.698 209.133 361.2 208.629 360.816C208.137 360.42 207.537 360.132 206.829 359.952C206.133 359.772 205.359 359.682 204.507 359.682H203.211V369.456H204.417ZM200.619 357.27H204.471C205.683 357.27 206.805 357.426 207.837 357.738C208.881 358.038 209.781 358.488 210.537 359.088C211.293 359.688 211.881 360.444 212.301 361.356C212.733 362.256 212.949 363.3 212.949 364.488C212.949 365.664 212.739 366.714 212.319 367.638C211.911 368.55 211.335 369.324 210.591 369.96C209.859 370.584 208.977 371.058 207.945 371.382C206.925 371.706 205.803 371.868 204.579 371.868H200.619V357.27Z" fill="#272727"/>
<path d="M227.346 371.868H224.628L223.386 368.43H217.338L216.114 371.868H213.396L218.796 357.27H221.946L227.346 371.868ZM218.202 366H222.522L220.362 359.934L218.202 366Z" fill="#272727"/>
<path d="M231.215 359.682H226.355V357.27H238.685V359.682H233.825V371.868H231.215V359.682Z" fill="#272727"/>
<path d="M251.639 371.868H248.921L247.679 368.43H241.631L240.407 371.868H237.689L243.089 357.27H246.239L251.639 371.868ZM242.495 366H246.815L244.655 359.934L242.495 366Z" fill="#272727"/>
<path d="M347.691 186.807L347.991 186.547C351.193 183.816 354.008 181.949 356.435 180.944C358.862 179.94 361.163 179.512 363.339 179.662C365.514 179.811 367.801 180.272 370.198 181.045C371.65 181.504 373.122 181.769 374.616 181.84C376.126 181.897 377.617 181.679 379.087 181.187C380.572 180.711 381.971 179.902 383.284 178.759C384.912 177.34 385.992 175.728 386.523 173.923C387.054 172.117 387.087 170.293 386.622 168.45C386.156 166.607 385.244 164.905 383.884 163.344C382.699 161.983 381.274 160.917 379.61 160.147C377.946 159.377 376.139 159.097 374.188 159.307C372.238 159.517 370.224 160.409 368.148 161.984L362.682 155.707C365.622 153.38 368.676 152.005 371.843 151.582C375.025 151.176 378.102 151.606 381.075 152.871C384.061 154.153 386.726 156.139 389.069 158.829C391.614 161.751 393.245 164.798 393.962 167.97C394.693 171.158 394.558 174.224 393.558 177.169C392.572 180.13 390.783 182.739 388.191 184.996C386.363 186.588 384.464 187.746 382.493 188.469C380.537 189.209 378.522 189.563 376.448 189.53C374.388 189.513 372.274 189.165 370.104 188.486C367.917 187.821 365.934 187.489 364.154 187.492C362.391 187.48 360.646 187.876 358.92 188.678C357.193 189.481 355.286 190.763 353.196 192.524L352.897 192.785L347.691 186.807ZM335.713 202.846C334.643 201.617 334.165 200.18 334.279 198.533C334.393 196.886 335.065 195.527 336.295 194.456C337.524 193.385 338.963 192.906 340.61 193.019C342.257 193.132 343.615 193.803 344.686 195.031C345.756 196.26 346.234 197.698 346.119 199.345C346.005 200.992 345.333 202.351 344.104 203.422C343.289 204.131 342.361 204.575 341.318 204.753C340.29 204.948 339.272 204.886 338.263 204.567C337.286 204.25 336.436 203.676 335.713 202.846Z" fill="#BEF1F3"/>
<path d="M200.983 66.9594L200.999 66.4279C201.219 60.7897 201.937 56.3183 203.154 53.0136C204.37 49.709 206.041 47.0527 208.165 45.0447C210.29 43.0367 212.823 41.203 215.764 39.5434C217.535 38.5301 219.135 37.3198 220.563 35.9126C221.992 34.4758 223.133 32.8091 223.984 30.9125C224.865 29.0168 225.339 26.9026 225.406 24.5698C225.488 21.6761 224.881 19.1468 223.585 16.982C222.288 14.8172 220.52 13.1265 218.281 11.91C216.042 10.6935 213.536 10.0456 210.762 9.9664C208.343 9.89728 205.997 10.3327 203.726 11.2726C201.455 12.2125 199.536 13.7387 197.97 15.8513C196.403 17.9638 195.452 20.7589 195.117 24.2365L183.963 23.9178C184.343 18.9048 185.764 14.6455 188.226 11.1401C190.718 7.63542 193.939 4.99384 197.888 3.2153C201.866 1.43761 206.245 0.617042 211.025 0.7536C216.218 0.90196 220.703 2.06442 224.48 4.24097C228.287 6.41838 231.186 9.33823 233.178 13.0005C235.199 16.6636 236.144 20.7984 236.013 25.4048C235.92 28.6529 235.334 31.5766 234.256 34.176C233.207 36.7762 231.724 39.0832 229.806 41.0971C227.917 43.1118 225.652 44.8793 223.01 46.3997C220.367 47.9495 218.238 49.6028 216.623 51.3593C215.008 53.0863 213.812 55.1651 213.034 57.5957C212.256 60.0263 211.785 63.0716 211.621 66.7314L211.606 67.2629L200.983 66.9594ZM205.9 93.3423C203.716 93.2799 201.865 92.4439 200.346 90.8342C198.827 89.2246 198.098 87.3272 198.161 85.1421C198.223 82.957 199.059 81.1043 200.667 79.584C202.276 78.0637 204.172 77.3347 206.355 77.3971C208.539 77.4595 210.39 78.2955 211.909 79.9052C213.428 81.5148 214.157 83.4122 214.094 85.5973C214.053 87.0442 213.646 88.3624 212.874 89.552C212.131 90.7424 211.144 91.6894 209.913 92.3931C208.713 93.0681 207.375 93.3845 205.9 93.3423Z" fill="#BEF1F3"/>
<path d="M62.4198 173.151L62.2114 172.831C59.9635 169.459 57.8476 166.988 55.8636 165.419C53.8797 163.85 51.8606 162.849 49.8064 162.415C47.7521 161.98 45.5128 161.806 43.0886 161.892C41.6235 161.934 40.1897 161.792 38.7873 161.465C37.3732 161.121 36.0499 160.527 34.8174 159.684C33.5671 158.852 32.4844 157.734 31.5694 156.33C30.4342 154.588 29.8582 152.811 29.8414 150.998C29.8246 149.186 30.2742 147.487 31.1902 145.903C32.1063 144.318 33.3992 142.982 35.069 141.894C36.5257 140.945 38.1259 140.333 39.8698 140.057C41.6137 139.782 43.3614 139.998 45.1129 140.706C46.8644 141.413 48.4946 142.769 50.0035 144.774L56.7182 140.399C54.607 137.47 52.1401 135.393 49.3174 134.167C46.477 132.954 43.5137 132.542 40.4276 132.932C37.3237 133.334 34.3328 134.473 31.4551 136.348C28.3287 138.385 26.0162 140.778 24.5178 143.527C23.0015 146.288 22.3194 149.163 22.4713 152.154C22.6054 155.156 23.576 158.044 25.3829 160.817C26.6571 162.772 28.1116 164.344 29.7464 165.533C31.3635 166.733 33.137 167.591 35.067 168.106C36.9791 168.633 39.0296 168.867 41.2183 168.808C43.4186 168.767 45.3427 168.982 46.9908 169.453C48.6272 169.906 50.1393 170.732 51.5271 171.93C52.9148 173.127 54.3446 174.817 55.8164 176.998L56.0249 177.318L62.4198 173.151ZM69.295 191.159C70.6095 190.303 71.4305 189.097 71.7581 187.541C72.0857 185.985 71.8209 184.55 70.9638 183.234C70.1066 181.919 68.9004 181.097 67.345 180.768C65.7896 180.439 64.3546 180.703 63.0401 181.56C61.7256 182.416 60.9045 183.622 60.577 185.178C60.2494 186.733 60.5142 188.169 61.3713 189.485C61.9389 190.356 62.6822 191.011 63.6012 191.45C64.5024 191.901 65.462 192.112 66.4799 192.082C67.4684 192.045 68.4068 191.738 69.295 191.159Z" fill="#BEF1F3"/>
<path d="M293.295 144.181H120.99V161.445H293.295V144.181Z" fill="#263238" stroke="#263238" stroke-miterlimit="10" stroke-linecap="round"/>
<path d="M293.295 156.943H120.99V180.662H293.295V156.943Z" fill="#00C2CB" stroke="#263238" stroke-miterlimit="10" stroke-linecap="round"/>
<path d="M130.416 165.534H139.64" stroke="#263238" stroke-width="2" stroke-miterlimit="10" stroke-linecap="round"/>
<path d="M130.416 169.99H139.64" stroke="#263238" stroke-width="2" stroke-miterlimit="10" stroke-linecap="round"/>
<path d="M130.416 174.445H139.64" stroke="#263238" stroke-width="2" stroke-miterlimit="10" stroke-linecap="round"/>
<path d="M131.644 149.462C131.644 150.773 130.168 151.24 130.168 152.212V152.276H131.589V152.726H129.691V152.35C129.691 150.947 131.158 150.672 131.158 149.453C131.158 149.003 131.012 148.765 130.654 148.765C130.297 148.765 130.141 149.022 130.141 149.407V149.792H129.691V149.434C129.691 148.774 129.994 148.334 130.663 148.334C131.333 148.334 131.644 148.792 131.644 149.462Z" fill="white"/>
<path d="M134.019 149.453V149.563C134.037 149.751 133.997 149.94 133.903 150.104C133.81 150.268 133.668 150.399 133.497 150.48C133.674 150.552 133.822 150.681 133.917 150.848C134.012 151.014 134.048 151.207 134.019 151.396V151.727C134.019 152.396 133.708 152.827 133.038 152.827C132.369 152.827 132.066 152.396 132.066 151.727V151.433H132.516V151.763C132.516 152.148 132.681 152.387 133.029 152.387C133.378 152.387 133.588 152.093 133.588 151.681V151.341C133.588 150.92 133.405 150.709 133.038 150.7H132.772V150.26H133.066C133.141 150.259 133.214 150.242 133.282 150.211C133.35 150.18 133.411 150.135 133.46 150.078C133.51 150.022 133.547 149.956 133.569 149.885C133.591 149.813 133.597 149.738 133.588 149.664V149.462C133.588 149.013 133.433 148.783 133.075 148.783C132.717 148.783 132.562 149.031 132.562 149.416V149.645H132.112V149.444C132.112 148.783 132.424 148.353 133.084 148.353C133.744 148.353 134.019 148.793 134.019 149.453Z" fill="white"/>
<path d="M134.964 149.782V150.387H134.506V149.782H134.964ZM134.964 152.148V152.753H134.506V152.148H134.964Z" fill="white"/>
<path d="M135.944 150.177C136.006 150.062 136.099 149.966 136.213 149.901C136.326 149.837 136.456 149.805 136.586 149.81C137.146 149.81 137.393 150.223 137.393 150.846V151.69C137.393 152.359 137.081 152.79 136.412 152.79C135.743 152.79 135.422 152.359 135.422 151.69V151.406H135.871V151.726C135.871 152.112 136.036 152.35 136.385 152.35C136.733 152.35 136.889 152.112 136.889 151.726V150.883C136.889 150.489 136.733 150.25 136.385 150.25C136.321 150.248 136.258 150.258 136.199 150.28C136.139 150.303 136.085 150.337 136.039 150.38C135.993 150.424 135.956 150.476 135.93 150.534C135.904 150.592 135.891 150.655 135.889 150.718V150.819H135.422L135.578 148.426H137.256V148.857H135.972L135.944 150.177Z" fill="white"/>
<path d="M139.814 149.443V149.526H139.356V149.416C139.356 149.021 139.191 148.792 138.843 148.792C138.494 148.792 138.311 149.031 138.311 149.498V150.47C138.363 150.327 138.46 150.205 138.587 150.121C138.714 150.036 138.865 149.995 139.017 150.002C139.576 150.002 139.824 150.406 139.824 151.039V151.69C139.824 152.359 139.493 152.79 138.833 152.79C138.173 152.79 137.834 152.359 137.834 151.69V149.48C137.834 148.792 138.137 148.361 138.833 148.361C139.53 148.361 139.814 148.783 139.814 149.443ZM138.311 151.075V151.726C138.311 152.111 138.476 152.35 138.833 152.35C139.191 152.35 139.347 152.111 139.347 151.726V151.075C139.347 150.681 139.173 150.443 138.833 150.443C138.494 150.443 138.311 150.681 138.311 151.075Z" fill="white"/>
<path d="M248.26 148.7H246.49V153.129H248.26V148.7Z" fill="white"/>
<path d="M250.615 147.82H248.846V153.129H250.615V147.82Z" fill="white"/>
<path d="M252.982 147.188H251.213V153.129H252.982V147.188Z" fill="white"/>
<path d="M255.338 146.097H253.568V153.138H255.338V146.097Z" fill="white"/>
<path d="M283.669 153.01H273.043V146.519H283.669V153.01ZM273.63 152.423H283.037V147.105H273.593L273.63 152.423Z" fill="white"/>
<path d="M280.12 147.747H274.518V151.772H280.12V147.747Z" fill="white"/>
<path d="M284.632 149.003H283.293V150.534H284.632V149.003Z" fill="white"/>
<path d="M266.395 151.598C266.324 151.597 266.254 151.578 266.193 151.543C265.665 151.147 265.026 150.93 264.367 150.921C263.707 150.913 263.063 151.115 262.525 151.497C262.489 151.534 262.445 151.563 262.397 151.583C262.349 151.603 262.298 151.613 262.246 151.613C262.194 151.613 262.142 151.603 262.094 151.583C262.046 151.563 262.003 151.534 261.966 151.497C261.894 151.422 261.854 151.322 261.854 151.217C261.854 151.113 261.894 151.013 261.966 150.938C262.63 150.448 263.433 150.184 264.258 150.184C265.083 150.184 265.887 150.448 266.55 150.938C266.643 150.992 266.71 151.08 266.737 151.183C266.765 151.286 266.75 151.396 266.697 151.488C266.614 151.562 266.506 151.602 266.395 151.598Z" fill="white"/>
<path d="M267.203 150.259C267.129 150.26 267.057 150.241 266.992 150.204C263.875 148.371 261.766 150.149 261.748 150.204C261.673 150.277 261.573 150.317 261.468 150.317C261.364 150.317 261.264 150.277 261.189 150.204C261.152 150.168 261.122 150.124 261.103 150.076C261.083 150.028 261.072 149.977 261.072 149.925C261.072 149.873 261.083 149.821 261.103 149.773C261.122 149.725 261.152 149.682 261.189 149.645C261.189 149.645 263.747 147.445 267.368 149.645C267.456 149.7 267.52 149.787 267.546 149.888C267.571 149.989 267.557 150.095 267.506 150.186C267.463 150.218 267.414 150.241 267.362 150.254C267.31 150.266 267.256 150.268 267.203 150.259Z" fill="white"/>
<path d="M267.927 148.719C267.856 148.719 267.786 148.7 267.725 148.664C263.764 146.308 261.133 148.527 261.023 148.618C260.944 148.688 260.841 148.723 260.736 148.716C260.631 148.709 260.533 148.661 260.464 148.582C260.394 148.502 260.359 148.399 260.366 148.294C260.373 148.189 260.421 148.092 260.5 148.022C260.5 148.022 263.654 145.327 268.128 148.022C268.173 148.049 268.212 148.084 268.243 148.125C268.274 148.167 268.297 148.214 268.309 148.264C268.322 148.314 268.325 148.367 268.318 148.418C268.31 148.469 268.293 148.519 268.266 148.563C268.226 148.614 268.174 148.655 268.115 148.682C268.056 148.709 267.992 148.722 267.927 148.719Z" fill="white"/>
<path d="M264.212 153.258C264.764 153.258 265.212 152.81 265.212 152.258C265.212 151.706 264.764 151.259 264.212 151.259C263.66 151.259 263.213 151.706 263.213 152.258C263.213 152.81 263.66 153.258 264.212 153.258Z" fill="white"/>
<path d="M220.69 128.255H194.101C193.493 128.255 192.91 128.014 192.48 127.584C192.05 127.154 191.809 126.571 191.809 125.963C191.809 125.355 192.05 124.772 192.48 124.342C192.91 123.912 193.493 123.671 194.101 123.671H220.69C221.297 123.671 221.88 123.912 222.31 124.342C222.74 124.772 222.982 125.355 222.982 125.963C222.982 126.571 222.74 127.154 222.31 127.584C221.88 128.014 221.297 128.255 220.69 128.255Z" fill="#595959"/>
<path d="M207.395 469.324C212.459 469.324 216.564 465.22 216.564 460.156C216.564 455.092 212.459 450.987 207.395 450.987C202.331 450.987 198.227 455.092 198.227 460.156C198.227 465.22 202.331 469.324 207.395 469.324Z" fill="#595959"/>
</svg>
