<svg width="24" height="24" viewBox="0 0 24 24" fill="none" xmlns="http://www.w3.org/2000/svg">
<circle cx="12" cy="12" r="12" fill="#F4EDFC"/>
<path d="M19.0312 5.8125H4.96875C3.8832 5.8125 3 6.6957 3 7.78125V16.2188C3 17.3043 3.8832 18.1875 4.96875 18.1875H19.0312C20.1168 18.1875 21 17.3043 21 16.2188V7.78125C21 6.6957 20.1168 5.8125 19.0312 5.8125ZM4.96875 6.9375H19.0312C19.4965 6.9375 19.875 7.31603 19.875 7.78125V8.90625H4.125V7.78125C4.125 7.31603 4.50353 6.9375 4.96875 6.9375ZM19.0312 17.0625H4.96875C4.50353 17.0625 4.125 16.684 4.125 16.2188V10.0312H19.875V16.2188C19.875 16.684 19.4965 17.0625 19.0312 17.0625Z" fill="#613592"/>
<path d="M6.9375 15.375H6.375C6.06436 15.375 5.8125 15.1231 5.8125 14.8125V14.25C5.8125 13.9394 6.06436 13.6875 6.375 13.6875H6.9375C7.24814 13.6875 7.5 13.9394 7.5 14.25V14.8125C7.5 15.1231 7.24814 15.375 6.9375 15.375Z" fill="#613592"/>
</svg>
