<svg width="25" height="22" viewBox="0 0 25 22" fill="none" xmlns="http://www.w3.org/2000/svg">
<path d="M9.00599 19.1538L9.31748 18.7627L9.00599 19.1538ZM12.5 3.57416L12.138 3.91906C12.2324 4.01811 12.3632 4.07416 12.5 4.07416C12.6368 4.07416 12.7676 4.01811 12.862 3.91906L12.5 3.57416ZM15.994 19.1538L16.3055 19.5449L15.994 19.1538ZM6.52227 16.5493C6.30993 16.3728 5.99468 16.4018 5.81814 16.6141C5.6416 16.8265 5.67061 17.1417 5.88295 17.3183L6.52227 16.5493ZM1.7103 12.5847C1.84177 12.8275 2.14521 12.9178 2.38805 12.7863C2.63088 12.6549 2.72117 12.3514 2.5897 12.1086L1.7103 12.5847ZM1.5 7.7989C1.5 5.15834 2.97749 2.92782 5.01906 1.98506C7.0277 1.05751 9.67802 1.33707 12.138 3.91906L12.862 3.22926C10.1472 0.379775 7.04749 -0.0531021 4.59982 1.07718C2.1851 2.19226 0.5 4.78985 0.5 7.7989H1.5ZM8.69451 19.5449C9.28689 20.0167 9.89977 20.5007 10.5153 20.8641C11.1306 21.2273 11.7968 21.5 12.5 21.5V20.5C12.0532 20.5 11.5694 20.3251 11.0237 20.0029C10.4782 19.6809 9.91911 19.2418 9.31748 18.7627L8.69451 19.5449ZM16.3055 19.5449C17.9678 18.2211 20.0245 16.7539 21.6414 14.9146C23.2754 13.0558 24.5 10.7781 24.5 7.7989H23.5C23.5 10.4693 22.4134 12.5218 20.8903 14.2543C19.3502 16.0064 17.4039 17.3918 15.6825 18.7627L16.3055 19.5449ZM24.5 7.7989C24.5 4.78985 22.8149 2.19226 20.4002 1.07718C17.9525 -0.0531021 14.8528 0.379775 12.138 3.22926L12.862 3.91906C15.322 1.33707 17.9723 1.05751 19.9809 1.98506C22.0225 2.92782 23.5 5.15834 23.5 7.7989H24.5ZM15.6825 18.7627C15.0809 19.2418 14.5218 19.6809 13.9763 20.0029C13.4306 20.3251 12.9468 20.5 12.5 20.5V21.5C13.2032 21.5 13.8694 21.2273 14.4847 20.8641C15.1002 20.5007 15.7131 20.0167 16.3055 19.5449L15.6825 18.7627ZM9.31748 18.7627C8.41507 18.044 7.46838 17.336 6.52227 16.5493L5.88295 17.3183C6.83544 18.1102 7.82751 18.8545 8.69451 19.5449L9.31748 18.7627ZM2.5897 12.1086C1.91702 10.8661 1.5 9.45424 1.5 7.7989H0.5C0.5 9.63319 0.964746 11.2076 1.7103 12.5847L2.5897 12.1086Z" fill="#46BFB8"/>
</svg>
