<svg width="24" height="24" viewBox="0 0 24 24" fill="none" xmlns="http://www.w3.org/2000/svg">
<circle cx="12" cy="12" r="12" fill="#F4EDFC"/>
<path d="M16.5943 18.6374H4.76657C4.73773 18.6376 4.70913 18.6321 4.68245 18.6211C4.65578 18.6101 4.63157 18.5939 4.61125 18.5734C4.59094 18.5529 4.57492 18.5286 4.56415 18.5018C4.55339 18.4751 4.54808 18.4464 4.54855 18.4176V7.20352C4.54947 7.14631 4.57285 7.09175 4.61364 7.05162C4.65443 7.01149 4.70935 6.98901 4.76657 6.98901H16.5943C16.6518 6.98948 16.7068 7.01265 16.7473 7.05349C16.7878 7.09433 16.8105 7.14952 16.8105 7.20704V18.4176C16.811 18.4463 16.8057 18.4748 16.7951 18.5014C16.7844 18.5281 16.7686 18.5523 16.7484 18.5728C16.7283 18.5932 16.7043 18.6095 16.6778 18.6206C16.6514 18.6317 16.623 18.6374 16.5943 18.6374ZM4.98987 18.2031H16.3833V7.42154H4.98284L4.98987 18.2031Z" fill="#613592"/>
<path d="M16.5944 7.42151H4.76668C4.71914 7.42138 4.67296 7.40572 4.63515 7.37691C4.59734 7.3481 4.56998 7.30773 4.55724 7.26194C4.54449 7.21614 4.54707 7.16744 4.56456 7.12324C4.58206 7.07905 4.61352 7.04178 4.65415 7.01712L7.30206 5.41712C7.33636 5.39761 7.37513 5.38731 7.41459 5.38723H19.2423C19.29 5.3866 19.3365 5.40175 19.3747 5.43033C19.4129 5.45892 19.4406 5.49932 19.4534 5.54526C19.4663 5.5912 19.4635 5.64009 19.4457 5.68433C19.4279 5.72857 19.3959 5.76567 19.3548 5.78986L16.7051 7.38986C16.6719 7.41066 16.6335 7.42163 16.5944 7.42151ZM5.54734 6.98898H16.5328L18.4669 5.82503H7.47613L5.54734 6.98898Z" fill="#613592"/>
<path d="M16.5943 18.6372C16.5567 18.6375 16.5196 18.6278 16.487 18.6091C16.4531 18.59 16.425 18.5621 16.4055 18.5284C16.386 18.4947 16.3759 18.4564 16.3762 18.4175V7.2034C16.3761 7.16585 16.3858 7.12892 16.4043 7.09624C16.4228 7.06356 16.4495 7.03626 16.4817 7.01703L19.1297 5.41703C19.1627 5.39711 19.2004 5.38632 19.239 5.38576C19.2776 5.38521 19.3156 5.3949 19.3493 5.41385C19.3829 5.4328 19.4108 5.46033 19.4303 5.49363C19.4498 5.52694 19.4601 5.56481 19.4602 5.6034V16.8192C19.4603 16.8568 19.4506 16.8937 19.4321 16.9264C19.4136 16.9591 19.387 16.9864 19.3547 17.0056L16.705 18.6056C16.6718 18.6264 16.6334 18.6374 16.5943 18.6372ZM16.8105 7.32648V18.0342L19.0242 16.6979V5.99021L16.8105 7.32648ZM12.32 7.42142H9.15514C9.10799 7.42106 9.06222 7.40542 9.02471 7.37684C8.9872 7.34827 8.95996 7.3083 8.94709 7.26294C8.93421 7.21757 8.93639 7.16926 8.9533 7.12524C8.9702 7.08122 9.00093 7.04387 9.04086 7.01878L11.6079 5.41878C11.6423 5.39771 11.6819 5.38674 11.7222 5.38714H14.887C14.9343 5.38677 14.9804 5.40193 15.0183 5.43028C15.0562 5.45863 15.0837 5.49861 15.0966 5.5441C15.1096 5.58959 15.1073 5.63808 15.0901 5.68213C15.0729 5.72619 15.0417 5.76338 15.0013 5.78802L12.4395 7.38802C12.4038 7.4106 12.3622 7.42221 12.32 7.42142ZM9.90767 6.98889H12.2637L14.131 5.82494H11.7749L9.90767 6.98889ZM8.24789 11.3318C8.20958 11.3323 8.17181 11.3227 8.13844 11.3038C8.10508 11.285 8.07732 11.2576 8.058 11.2245C8.03868 11.1915 8.0285 11.1538 8.0285 11.1155C8.0285 11.0772 8.03868 11.0396 8.058 11.0065L9.00921 9.36076C9.02801 9.32748 9.05536 9.29982 9.08844 9.28065C9.12152 9.26149 9.15911 9.25151 9.19734 9.25175H12.1864C12.2248 9.25156 12.2626 9.26155 12.296 9.28069C12.3293 9.29984 12.357 9.32746 12.3762 9.36076L13.2096 10.806C13.2245 10.8309 13.2344 10.8584 13.2387 10.887C13.2429 10.9156 13.2415 10.9448 13.2345 10.9729C13.2275 11.001 13.215 11.0274 13.1977 11.0507C13.1805 11.0739 13.1589 11.0936 13.134 11.1085C13.1092 11.1233 13.0817 11.1332 13.0531 11.1375C13.0244 11.1417 12.9953 11.1403 12.9672 11.1333C12.9391 11.1263 12.9127 11.1138 12.8894 11.0965C12.8662 11.0793 12.8465 11.0577 12.8316 11.0328L12.0598 9.69483H9.32394L8.43602 11.2333C8.41554 11.2643 8.38754 11.2895 8.35464 11.3067C8.32174 11.324 8.28501 11.3326 8.24789 11.3318Z" fill="#613592"/>
<path d="M11.2949 12.2338C11.2568 12.2336 11.2193 12.2235 11.1863 12.2044C11.1533 12.1852 11.1259 12.1578 11.1068 12.1247L9.62638 9.57881C9.59972 9.52906 9.59339 9.47092 9.60872 9.41661C9.62406 9.36229 9.65985 9.31604 9.70858 9.28758C9.75731 9.25911 9.81519 9.25065 9.87003 9.26398C9.92487 9.2773 9.9724 9.31138 10.0026 9.35903L11.4831 11.912C11.5118 11.9619 11.5196 12.0212 11.5048 12.0769C11.49 12.1326 11.4537 12.1801 11.404 12.2091C11.3703 12.2265 11.3328 12.235 11.2949 12.2338Z" fill="#613592"/>
<path d="M12.6646 12.6011C12.6459 12.6038 12.627 12.6038 12.6083 12.6011L10.5459 12.0385C10.5183 12.0314 10.4924 12.0188 10.4696 12.0015C10.4469 11.9843 10.4279 11.9626 10.4137 11.9379C10.3994 11.9132 10.3902 11.8859 10.3867 11.8575C10.3831 11.8292 10.3853 11.8005 10.3929 11.773C10.4003 11.7453 10.413 11.7193 10.4305 11.6965C10.4479 11.6737 10.4696 11.6546 10.4945 11.6402C10.5193 11.6258 10.5467 11.6165 10.5751 11.6127C10.6036 11.609 10.6325 11.6109 10.6602 11.6183L12.5099 12.1176L13.0092 10.2662C13.0165 10.2387 13.0292 10.2129 13.0466 10.1903C13.0639 10.1677 13.0855 10.1488 13.1102 10.1346C13.1349 10.1204 13.1621 10.1112 13.1903 10.1075C13.2185 10.1038 13.2472 10.1058 13.2747 10.1132C13.3305 10.1285 13.378 10.1651 13.4069 10.2151C13.4359 10.2651 13.444 10.3245 13.4294 10.3805L12.8738 12.4394C12.862 12.4857 12.8349 12.5266 12.7969 12.5557C12.759 12.5847 12.7124 12.6001 12.6646 12.5994V12.6011ZM13.1428 16.3761H11.4743C11.4164 16.3761 11.361 16.3531 11.3201 16.3122C11.2792 16.2713 11.2562 16.2159 11.2562 16.1581C11.2562 16.1002 11.2792 16.0448 11.3201 16.0039C11.361 15.963 11.4164 15.94 11.4743 15.94H13.018L14.3912 13.5735L13.5121 12.035C13.4832 11.9849 13.4753 11.9253 13.4903 11.8694C13.5053 11.8135 13.5419 11.7659 13.5921 11.737C13.6422 11.7081 13.7018 11.7002 13.7576 11.7153C13.8135 11.7303 13.8612 11.7668 13.8901 11.817L14.836 13.4662C14.855 13.4991 14.865 13.5364 14.865 13.5743C14.865 13.6123 14.855 13.6496 14.836 13.6825L13.338 16.2671C13.3181 16.3009 13.2895 16.3289 13.2552 16.348C13.2209 16.3672 13.1821 16.3769 13.1428 16.3761Z" fill="#613592"/>
<path d="M11.8909 16.835C11.8331 16.8349 11.7775 16.8122 11.7362 16.7717L10.2329 15.2578C10.1922 15.217 10.1694 15.1616 10.1694 15.104C10.1694 15.0463 10.1922 14.991 10.2329 14.9501L11.7468 13.4451C11.7884 13.4085 11.8423 13.3891 11.8977 13.3909C11.9531 13.3927 12.0057 13.4155 12.0449 13.4547C12.084 13.4938 12.1068 13.5465 12.1086 13.6018C12.1104 13.6572 12.091 13.7112 12.0545 13.7528L10.6936 15.1049L12.0457 16.4657C12.066 16.4859 12.0822 16.5098 12.0932 16.5362C12.1043 16.5626 12.1099 16.591 12.1099 16.6196C12.1099 16.6482 12.1043 16.6765 12.0932 16.7029C12.0822 16.7294 12.066 16.7533 12.0457 16.7734C12.0042 16.8134 11.9486 16.8355 11.8909 16.835ZM10.2013 16.369H8.30061C8.26246 16.3689 8.225 16.3588 8.19199 16.3397C8.15898 16.3205 8.13156 16.2931 8.11248 16.26L6.62501 13.6701C6.60604 13.6369 6.59607 13.5994 6.59607 13.5611C6.59607 13.5229 6.60604 13.4853 6.62501 13.4521L7.46545 12.0086C7.49459 11.9589 7.54227 11.9229 7.598 11.9084C7.65372 11.8939 7.71293 11.9021 7.76259 11.9312C7.81225 11.9604 7.84831 12.0081 7.86281 12.0638C7.87732 12.1195 7.8691 12.1787 7.83995 12.2284L7.06457 13.5629L8.42545 15.9365H10.2013C10.2555 15.9414 10.3059 15.9664 10.3426 16.0066C10.3794 16.0467 10.3997 16.0992 10.3997 16.1536C10.3997 16.2081 10.3794 16.2606 10.3426 16.3007C10.3059 16.3409 10.2555 16.3659 10.2013 16.3708V16.369Z" fill="#613592"/>
<path d="M8.00174 15.8417C7.9636 15.8418 7.92607 15.8321 7.89273 15.8136C7.84266 15.7849 7.80602 15.7375 7.79086 15.6818C7.7757 15.6261 7.78325 15.5666 7.81185 15.5165L9.27471 12.9529C9.28876 12.928 9.30764 12.9061 9.33024 12.8884C9.35284 12.8708 9.37872 12.8579 9.40637 12.8504C9.43401 12.8428 9.46288 12.8409 9.49129 12.8446C9.5197 12.8483 9.54708 12.8577 9.57185 12.8721C9.59676 12.886 9.61865 12.9047 9.63624 12.9271C9.65383 12.9496 9.66677 12.9753 9.6743 13.0028C9.68183 13.0303 9.6838 13.059 9.6801 13.0873C9.6764 13.1156 9.66709 13.1428 9.65273 13.1675L8.18987 15.7327C8.17093 15.7659 8.14355 15.7934 8.1105 15.8126C8.07746 15.8317 8.03993 15.8418 8.00174 15.8417Z" fill="#613592"/>
<path d="M9.6492 13.971C9.60119 13.9708 9.55457 13.9548 9.51647 13.9256C9.47837 13.8964 9.45088 13.8555 9.43821 13.8092L8.94942 11.956L7.09623 12.4395C7.04549 12.443 6.99515 12.4286 6.95391 12.3988C6.91267 12.3691 6.88313 12.3258 6.8704 12.2766C6.85768 12.2273 6.86256 12.1752 6.88421 12.1292C6.90587 12.0832 6.94293 12.0462 6.98898 12.0246L9.05315 11.4795C9.10885 11.4655 9.16781 11.4739 9.21743 11.5028C9.26705 11.5317 9.30338 11.5789 9.31865 11.6343L9.8637 13.6967C9.87823 13.7526 9.87015 13.812 9.84119 13.8621C9.81223 13.9121 9.76473 13.9487 9.70898 13.9639C9.68931 13.9681 9.6693 13.9705 9.6492 13.971ZM14.3244 14.3279H11.3846C11.3268 14.3279 11.2713 14.3049 11.2304 14.264C11.1895 14.2231 11.1666 14.1677 11.1666 14.1099C11.1666 14.052 11.1895 13.9966 11.2304 13.9557C11.2713 13.9148 11.3268 13.8918 11.3846 13.8918H14.3244C14.3822 13.8918 14.4376 13.9148 14.4785 13.9557C14.5194 13.9966 14.5424 14.052 14.5424 14.1099C14.5424 14.1677 14.5194 14.2231 14.4785 14.264C14.4376 14.3049 14.3822 14.3279 14.3244 14.3279Z" fill="#613592"/>
</svg>
