<svg width="24" height="24" viewBox="0 0 24 24" fill="none" xmlns="http://www.w3.org/2000/svg">
<circle cx="12" cy="12" r="12" fill="#F4EDFC"/>
<path d="M12.1123 19.7775C11.8891 19.7773 11.6696 19.72 11.4748 19.611L8.9473 18.207C7.69071 17.5084 6.64364 16.4866 5.91445 15.2475C5.18525 14.0084 4.80043 12.597 4.7998 11.1593V7.26225C4.79977 6.93797 4.91999 6.62519 5.13721 6.38442C5.35444 6.14364 5.65323 5.99198 5.9758 5.95875C6.98143 5.85216 7.97114 5.62839 8.9248 5.292C9.79918 4.98292 10.638 4.58113 11.4268 4.0935C11.6332 3.96722 11.8704 3.90039 12.1123 3.90039C12.3542 3.90039 12.5915 3.96722 12.7978 4.0935C13.5867 4.58099 14.4255 4.98277 15.2998 5.292C16.2535 5.62839 17.2432 5.85216 18.2488 5.95875C18.5714 5.99198 18.8702 6.14364 19.0874 6.38442C19.3046 6.62519 19.4248 6.93797 19.4248 7.26225V11.1593C19.4242 12.597 19.0394 14.0084 18.3102 15.2475C17.581 16.4866 16.5339 17.5084 15.2773 18.207L12.7498 19.6118C12.5549 19.7205 12.3355 19.7776 12.1123 19.7775ZM12.1123 5.025C12.0793 5.02471 12.0469 5.03353 12.0186 5.0505C11.1613 5.58035 10.2499 6.01708 9.2998 6.35325C8.2635 6.71901 7.18792 6.96217 6.09505 7.07775C6.04863 7.0817 6.00538 7.10292 5.97386 7.13722C5.94233 7.17153 5.92483 7.21641 5.9248 7.263V11.16C5.92521 12.3971 6.25624 13.6117 6.88365 14.6779C7.51105 15.7442 8.41203 16.6234 9.49331 17.2245L12.0208 18.6285C12.0485 18.6441 12.0798 18.6523 12.1116 18.6523C12.1433 18.6523 12.1746 18.6441 12.2023 18.6285L14.7313 17.2245C15.8126 16.6234 16.7136 15.7442 17.341 14.6779C17.9684 13.6117 18.2994 12.3971 18.2998 11.16V7.26225C18.2998 7.21566 18.2823 7.17078 18.2508 7.13647C18.2192 7.10217 18.176 7.08095 18.1296 7.077C17.0367 6.96142 15.9611 6.71826 14.9248 6.3525C13.9748 6.0168 13.0634 5.58058 12.2061 5.05125C12.1779 5.03387 12.1454 5.02477 12.1123 5.025Z" fill="#613592"/>
<path d="M11.6248 13.6877C11.487 13.6878 11.354 13.6371 11.2513 13.5452L9.56383 12.0452C9.45919 11.9444 9.39762 11.807 9.39202 11.6618C9.38642 11.5166 9.43721 11.3749 9.53377 11.2663C9.63032 11.1577 9.76514 11.0907 9.90999 11.0793C10.0548 11.0679 10.1985 11.113 10.3108 11.2052L11.5888 12.3407L14.0271 9.74043C14.0773 9.6853 14.1379 9.6407 14.2055 9.60922C14.2731 9.57774 14.3463 9.56002 14.4208 9.55708C14.4953 9.55414 14.5697 9.56604 14.6395 9.5921C14.7094 9.61815 14.7734 9.65784 14.8278 9.70885C14.8822 9.75985 14.9259 9.82117 14.9564 9.88922C14.9868 9.95727 15.0035 10.0307 15.0053 10.1052C15.0072 10.1798 14.9942 10.254 14.9671 10.3234C14.94 10.3929 14.8994 10.4563 14.8476 10.5099L12.0351 13.5099C11.9826 13.5661 11.919 13.6109 11.8485 13.6415C11.7779 13.6721 11.7017 13.6878 11.6248 13.6877Z" fill="#613592"/>
</svg>
