<svg width="24" height="24" viewBox="0 0 24 24" fill="none" xmlns="http://www.w3.org/2000/svg">
<circle cx="12" cy="12" r="12" fill="#F4EDFC"/>
<path d="M12 14.25C13.2426 14.25 14.25 13.2426 14.25 12C14.25 10.7574 13.2426 9.75 12 9.75C10.7574 9.75 9.75 10.7574 9.75 12C9.75 13.2426 10.7574 14.25 12 14.25Z" stroke="#613592" stroke-miterlimit="10" stroke-linecap="round" stroke-linejoin="round"/>
<path d="M4.5 12.6591V11.3391C4.5 10.5591 5.1375 9.9141 5.925 9.9141C7.2825 9.9141 7.8375 8.9541 7.155 7.7766C6.765 7.1016 6.9975 6.2241 7.68 5.8341L8.9775 5.0916C9.57 4.7391 10.335 4.9491 10.6875 5.5416L10.77 5.6841C11.445 6.8616 12.555 6.8616 13.2375 5.6841L13.32 5.5416C13.6725 4.9491 14.4375 4.7391 15.03 5.0916L16.3275 5.8341C17.01 6.2241 17.2425 7.1016 16.8525 7.7766C16.17 8.9541 16.725 9.9141 18.0825 9.9141C18.8625 9.9141 19.5075 10.5516 19.5075 11.3391V12.6591C19.5075 13.4391 18.87 14.0841 18.0825 14.0841C16.725 14.0841 16.17 15.0441 16.8525 16.2216C17.2425 16.9041 17.01 17.7741 16.3275 18.1641L15.03 18.9066C14.4375 19.2591 13.6725 19.0491 13.32 18.4566L13.2375 18.3141C12.5625 17.1366 11.4525 17.1366 10.77 18.3141L10.6875 18.4566C10.335 19.0491 9.57 19.2591 8.9775 18.9066L7.68 18.1641C6.9975 17.7741 6.765 16.8966 7.155 16.2216C7.8375 15.0441 7.2825 14.0841 5.925 14.0841C5.1375 14.0841 4.5 13.4391 4.5 12.6591Z" stroke="#613592" stroke-miterlimit="10" stroke-linecap="round" stroke-linejoin="round"/>
</svg>
