<svg width="24" height="24" viewBox="0 0 24 24" fill="none" xmlns="http://www.w3.org/2000/svg">
<circle cx="12" cy="12" r="12" fill="#F4EDFC"/>
<path fill-rule="evenodd" clip-rule="evenodd" d="M4.54155 16.6183C7.06 16.6194 9.57751 16.6194 12.0971 16.6183C12.1522 17.0827 12.3836 17.5082 12.7435 17.807H5.85583C5.15921 17.807 4.65658 17.2794 4.54155 16.6183ZM17.148 5.20127C17.8446 5.20127 18.3482 5.72865 18.4632 6.38976H15.7627C15.812 6.05816 15.9792 5.75546 16.2337 5.53717C16.4881 5.31887 16.8127 5.19962 17.148 5.20127ZM7.80007 5.20127H15.9723C15.5768 5.53296 15.3182 6.0286 15.3182 6.58262L15.3171 16.4039C15.318 16.5878 15.2826 16.7701 15.2129 16.9403C15.1431 17.1105 15.0405 17.2653 14.9107 17.3956C14.781 17.526 14.6268 17.6295 14.4569 17.7001C14.2871 17.7707 14.1049 17.807 13.921 17.807H13.914C13.5443 17.8086 13.189 17.6634 12.9261 17.4033C12.6633 17.1432 12.5144 16.7895 12.5121 16.4198C12.5202 16.3064 12.4494 16.1874 12.2966 16.1906H6.39795V6.60453C6.39682 6.42003 6.43231 6.23714 6.50236 6.06646C6.57241 5.89577 6.67563 5.74068 6.80604 5.61016C6.93644 5.47965 7.09145 5.37631 7.26208 5.30612C7.43271 5.23593 7.61557 5.20029 7.80007 5.20127ZM7.80007 4.77344C6.78951 4.77344 5.96917 5.59397 5.96917 6.60434V16.1904H4.23838C4.09086 16.1904 4.02588 16.3034 4.02588 16.4037C4.02588 17.4143 4.84547 18.2346 5.85583 18.2346H13.9142C15.0398 18.2346 15.7187 17.2705 15.7451 16.4037V6.81759H18.7654C18.8835 6.81759 18.9798 6.7222 18.9798 6.60434C18.9798 5.59378 18.1593 4.77344 17.1482 4.77344H7.80007Z" fill="#613592"/>
<path d="M17.2118 9.37604H17.8269L17.8365 17.108L17.5346 17.5132L17.2218 17.0989L17.2118 9.37604ZM16.9769 8.94839C16.9241 8.95351 16.875 8.97811 16.8394 9.0174C16.8037 9.05668 16.784 9.10784 16.784 9.16089L16.794 17.1713C16.794 17.217 16.8087 17.2623 16.8373 17.2997L17.3626 17.9984C17.3825 18.0252 17.4085 18.0469 17.4384 18.0618C17.4682 18.0767 17.5012 18.0844 17.5346 18.0843C17.5679 18.0841 17.6008 18.0762 17.6306 18.0611C17.6603 18.046 17.6862 18.0242 17.706 17.9973L18.2231 17.306C18.2507 17.2684 18.2656 17.2244 18.2645 17.1779L18.2549 9.16089C18.2549 9.04284 18.1582 8.94726 18.0401 8.94839H16.9974C16.9906 8.94726 16.9837 8.94726 16.9769 8.94839ZM17.0377 8.173C16.7525 8.173 16.774 8.60084 17.0602 8.60084H17.9891C18.2849 8.60084 18.2849 8.173 17.9891 8.173H17.0377ZM8.39393 7.87305C7.91774 7.87305 7.52637 8.26178 7.52637 8.73778V10.0317C7.52637 10.5069 7.91774 10.8943 8.39393 10.8943H9.65741C10.1334 10.8943 10.5259 10.5067 10.5259 10.0317V9.68128C10.5259 9.3953 10.0971 9.3953 10.0971 9.68128V10.0317C10.0971 10.2757 9.90486 10.4667 9.65741 10.4667H8.39393C8.14611 10.4667 7.95533 10.2757 7.95533 10.0317V8.73778C7.95533 8.49298 8.1463 8.30201 8.39393 8.30201H9.57676C9.86311 8.30201 9.86311 7.87305 9.57676 7.87305H8.39393Z" fill="#613592"/>
<path d="M10.6547 8.05004C10.5989 8.05116 10.5457 8.07407 10.5065 8.11388L9.13891 9.47652L8.71089 9.05134C8.69103 9.03144 8.66745 9.01565 8.64149 9.00487C8.61554 8.99409 8.58771 8.98853 8.5596 8.9885C8.53149 8.98848 8.50366 8.99399 8.47768 9.00472C8.4517 9.01545 8.42809 9.0312 8.40819 9.05105C8.3883 9.07091 8.37251 9.09449 8.36173 9.12045C8.35095 9.14641 8.34539 9.17423 8.34536 9.20234C8.34534 9.23045 8.35085 9.25829 8.36158 9.28426C8.37231 9.31024 8.38806 9.33385 8.40791 9.35375L8.98818 9.93118C9.02825 9.97084 9.08235 9.99308 9.13872 9.99308C9.1951 9.99308 9.2492 9.97084 9.28927 9.93118L10.8093 8.41705C10.9473 8.28029 10.8476 8.04607 10.6547 8.05004ZM11.3976 10.4665C11.3686 10.465 11.3396 10.4694 11.3124 10.4795C11.2851 10.4896 11.2602 10.5051 11.2391 10.5251C11.218 10.5451 11.2013 10.5692 11.1898 10.5959C11.1783 10.6226 11.1724 10.6514 11.1724 10.6804C11.1724 10.7095 11.1783 10.7382 11.1898 10.7649C11.2013 10.7916 11.218 10.8157 11.2391 10.8357C11.2602 10.8557 11.2851 10.8712 11.3124 10.8813C11.3396 10.8914 11.3686 10.8958 11.3976 10.8943H13.9701C13.9991 10.8958 14.0282 10.8914 14.0554 10.8813C14.0827 10.8712 14.1076 10.8557 14.1287 10.8357C14.1497 10.8157 14.1665 10.7916 14.178 10.7649C14.1894 10.7382 14.1953 10.7095 14.1953 10.6804C14.1953 10.6514 14.1894 10.6226 14.178 10.5959C14.1665 10.5692 14.1497 10.5451 14.1287 10.5251C14.1076 10.5051 14.0827 10.4896 14.0554 10.4795C14.0282 10.4694 13.9991 10.465 13.9701 10.4665H11.3976ZM12.1521 7.87305C12.0951 7.873 12.0404 7.89553 12 7.93572C11.9596 7.9759 11.9368 8.03046 11.9365 8.08744C11.9365 8.20662 12.0333 8.30201 12.1521 8.30201H13.9701C14.2565 8.30201 14.2565 7.87305 13.9701 7.87305H12.1521ZM11.3976 9.60157C11.3688 9.60036 11.34 9.60499 11.313 9.6152C11.2859 9.62541 11.2613 9.64098 11.2404 9.66097C11.2196 9.68096 11.203 9.70497 11.1916 9.73154C11.1803 9.75811 11.1745 9.78669 11.1745 9.81558C11.1745 9.84447 11.1803 9.87305 11.1916 9.89962C11.203 9.92619 11.2196 9.9502 11.2404 9.97019C11.2613 9.99018 11.2859 10.0058 11.313 10.016C11.34 10.0262 11.3688 10.0308 11.3976 10.0296H13.9701C13.999 10.0308 14.0278 10.0262 14.0548 10.016C14.0818 10.0058 14.1065 9.99018 14.1274 9.97019C14.1482 9.9502 14.1648 9.92619 14.1761 9.89962C14.1875 9.87305 14.1933 9.84447 14.1933 9.81558C14.1933 9.78669 14.1875 9.75811 14.1761 9.73154C14.1648 9.70497 14.1482 9.68096 14.1274 9.66097C14.1065 9.64098 14.0818 9.62541 14.0548 9.6152C14.0278 9.60499 13.999 9.60036 13.9701 9.60157H11.3976ZM11.3976 8.73778C11.3688 8.73657 11.34 8.7412 11.313 8.75141C11.2859 8.76162 11.2613 8.77719 11.2404 8.79718C11.2196 8.81717 11.203 8.84118 11.1916 8.86775C11.1803 8.89432 11.1745 8.92291 11.1745 8.95179C11.1745 8.98068 11.1803 9.00927 11.1916 9.03584C11.203 9.06241 11.2196 9.08641 11.2404 9.1064C11.2613 9.12639 11.2859 9.14196 11.313 9.15217C11.34 9.16238 11.3688 9.16702 11.3976 9.1658H13.9701C13.999 9.16702 14.0278 9.16238 14.0548 9.15217C14.0818 9.14196 14.1065 9.12639 14.1274 9.1064C14.1482 9.08641 14.1648 9.06241 14.1761 9.03584C14.1875 9.00927 14.1933 8.98068 14.1933 8.95179C14.1933 8.92291 14.1875 8.89432 14.1761 8.86775C14.1648 8.84118 14.1482 8.81717 14.1274 8.79718C14.1065 8.77719 14.0818 8.76162 14.0548 8.75141C14.0278 8.7412 13.999 8.73657 13.9701 8.73778H11.3976ZM11.3976 14.4449C11.1115 14.4449 11.1115 14.8738 11.3976 14.8738H13.9701C14.2565 14.8738 14.2565 14.4449 13.9701 14.4449H11.3976ZM12.1521 11.8507C11.8657 11.8507 11.8657 12.2804 12.1521 12.2804H13.9701C14.2565 12.2804 14.2565 11.8507 13.9701 11.8507H12.1521ZM11.3976 13.5801C11.2785 13.5801 11.1829 13.6768 11.1829 13.7945C11.1829 13.9137 11.2785 14.01 11.3976 14.01H13.9701C14.2565 14.01 14.2565 13.5803 13.9701 13.5803H11.3976V13.5801ZM11.3976 12.7154C11.2785 12.7154 11.1829 12.8117 11.1829 12.9309C11.1829 13.049 11.2785 13.1453 11.3976 13.1453H13.9701C14.2565 13.1453 14.2565 12.7156 13.9701 12.7156L11.3976 12.7154ZM8.39393 11.8524C7.91774 11.8524 7.52637 12.2409 7.52637 12.7171V14.011C7.52637 14.4862 7.91774 14.8738 8.39393 14.8738H9.65741C10.1334 14.8738 10.5259 14.486 10.5259 14.011V13.6608C10.5259 13.3741 10.0971 13.3741 10.0971 13.6608V14.011C10.0971 14.2548 9.90486 14.4456 9.65741 14.4456H8.39393C8.14611 14.4456 7.95533 14.2548 7.95533 14.011V12.7171C7.95533 12.4721 8.1463 12.2813 8.39393 12.2813H9.57676C9.86311 12.2813 9.86311 11.8524 9.57676 11.8524H8.39393Z" fill="#613592"/>
<path d="M10.6548 12.0313C10.599 12.0324 10.5458 12.0551 10.5065 12.0948L9.13896 13.4576L8.71094 13.0326C8.69143 13.0114 8.66784 12.9943 8.64157 12.9824C8.6153 12.9705 8.5869 12.9641 8.55808 12.9635C8.52926 12.9628 8.5006 12.968 8.47384 12.9787C8.44707 12.9894 8.42275 13.0055 8.40232 13.0258C8.3819 13.0462 8.3658 13.0704 8.35498 13.0971C8.34417 13.1239 8.33886 13.1525 8.33939 13.1813C8.33992 13.2102 8.34626 13.2386 8.35805 13.2649C8.36983 13.2912 8.38681 13.3149 8.40796 13.3344L8.98823 13.9123C9.02825 13.952 9.08237 13.9743 9.13877 13.9743C9.19518 13.9743 9.2493 13.952 9.28932 13.9123L10.8093 12.3981C10.9474 12.2614 10.8477 12.0271 10.6548 12.0313Z" fill="#613592"/>
</svg>
