<svg width="24" height="24" viewBox="0 0 24 24" fill="none" xmlns="http://www.w3.org/2000/svg">
<circle cx="12" cy="12" r="12" fill="#F4EDFC"/>
<g clip-path="url(#clip0_119_5465)">
<path d="M19.2727 12.0671V9.81833C19.2727 9.0558 18.6812 8.43566 17.9339 8.37553L15.8456 4.72786C15.652 4.3905 15.3395 4.14938 14.9656 4.04926C14.5934 3.94982 14.2042 4.00204 13.8711 4.19592L6.71207 8.3638H5.45472C4.65254 8.3638 4.00018 9.01612 4.00018 9.81833V18.5455C4.00018 19.3476 4.6525 20 5.45472 20H17.8182C18.6203 20 19.2727 19.3477 19.2727 18.5455V16.2967C19.695 16.1461 19.9999 15.7462 19.9999 15.2728V13.091C19.9999 12.6176 19.695 12.2177 19.2727 12.0671ZM17.0889 8.3638H13.9195L16.2965 6.97987L17.0889 8.3638ZM15.9352 6.34875L12.4741 8.3638H11.0384L15.5762 5.7218L15.9352 6.34875ZM14.2372 4.82444C14.4017 4.7282 14.5938 4.70263 14.7774 4.75166C14.9631 4.80136 15.1179 4.92139 15.2142 5.08935L15.2149 5.09068L9.59308 8.3638H8.1575L14.2372 4.82444ZM18.5454 18.5455C18.5454 18.9464 18.2191 19.2727 17.8182 19.2727H5.45472C5.05381 19.2727 4.72747 18.9464 4.72747 18.5455V9.81833C4.72747 9.41743 5.05381 9.09108 5.45472 9.09108H17.8182C18.2191 9.09108 18.5454 9.41743 18.5454 9.81833V12.0001H16.3636C15.1605 12.0001 14.1818 12.9788 14.1818 14.1819C14.1818 15.385 15.1605 16.3637 16.3636 16.3637H18.5454V18.5455ZM19.2727 15.2728C19.2727 15.4734 19.1097 15.6364 18.9091 15.6364H16.3636C15.5615 15.6364 14.9091 14.9841 14.9091 14.1819C14.9091 13.3797 15.5614 12.7274 16.3636 12.7274H18.9091C19.1097 12.7274 19.2727 12.8904 19.2727 13.091V15.2728Z" fill="#613592"/>
<path d="M16.3635 13.4546C15.9626 13.4546 15.6363 13.7809 15.6363 14.1818C15.6363 14.5827 15.9626 14.9091 16.3635 14.9091C16.7644 14.9091 17.0908 14.5827 17.0908 14.1818C17.0908 13.7809 16.7645 13.4546 16.3635 13.4546Z" fill="#613592"/>
</g>
<defs>
<clipPath id="clip0_119_5465">
<rect width="16" height="16" fill="white" transform="translate(4 4)"/>
</clipPath>
</defs>
</svg>
